<?xml version="1.0" encoding="iso-8859-1"?>
<!-- Generator: Adobe Illustrator 19.0.0, SVG Export Plug-In . SVG Version: 6.00 Build 0)  -->
<svg version="1.1" id="Capa_1" xmlns="http://www.w3.org/2000/svg" xmlns:xlink="http://www.w3.org/1999/xlink" x="0px" y="0px"
	 viewBox="0 0 512 512" style="enable-background:new 0 0 512 512;" xml:space="preserve">
<path style="fill:#FEE2C9;" d="M121.328,230.801c-3.813,7.152-1.277,17.726,6.349,20.471c3.193,1.15,6.73,0.853,10.021,1.688
	c9.494,2.412,13.992,12.871,18.662,21.482c10.225,18.855,27.193,33.699,46.659,42.708c21.528,9.963,54.088,17.416,76.528,7.334
	c16.201-7.279,32.563-14.888,46.388-26.232c6.434-5.279,13.466-11.247,16.26-19.028c2.564-7.14,1.698-16.807,9.583-20.917
	c5.013-2.613,11.168-0.832,16.707-1.964c6.035-1.232,11.117-6.265,12.41-12.287s-1.276-12.697-6.273-16.298
	c-3.448-2.486-7.751-3.505-11.357-5.756c-8.113-5.062-11.242-15.168-17.159-22.681c-10.439-13.257-28.545-17.369-45.287-19.477
	c-38.922-4.9-78.614-3.634-117.145,3.738c-7.204,1.378-14.811,3.205-19.924,8.465c-7.815,8.041-7.932,22.122-19.38,26.871
	C135.509,222.596,126.838,220.462,121.328,230.801z"/>
<g>
	<path style="fill:#EFCAAC;" d="M322.91,304.101c-14.84,7.357-38.311,20.777-54.938,12.517
		c-26.635-13.232-54.872-20.554-70.855-48.125c-8.704-15.015-16.839-43.876-9.793-61.073c7.561-18.452,45.053-20.415,61.394-19.699
		c23.291,1.02,45.886,7.766,68.472,13.54c6.447,1.648,15.28,2.095,17.692-4.107c1.463-3.761-0.697-8.158-3.968-10.521
		s-7.388-3.154-11.367-3.823c-28.631-4.811-57.794-6.422-86.781-4.831c-19.826,1.088-52.247-0.043-67.706,15.355
		c-5.074,5.054-6.157,13.136-11.044,18.455c-5.507,5.995-14.303,7.239-21.887,10.195s-15.249,10.272-12.818,18.042
		c2.652,8.483,14.1,9.36,21.7,13.968c10.268,6.227,13.221,19.413,18.562,30.169c5.082,10.235,13.634,17.695,19.775,27.113
		c6.132,9.404,13.798,17.61,22.845,24.274c18.343,13.515,41.67,20.546,64.431,18.085c13.517-1.461,26.901-6.103,37.457-14.672
		C314.635,330.394,322.116,317.673,322.91,304.101z"/>
	<path style="fill:#EFCAAC;" d="M366.256,230.752c-4.429-1.386-9.531,3.08-8.746,7.654c0.786,4.574,7.087,7.08,10.8,4.295
		c3.713-2.785,3.07-9.536-1.101-11.57"/>
	<path style="fill:#EFCAAC;" d="M238.164,258.725c-2.875-1.957-4.66-5.417-4.592-8.893c0.068-3.476,1.99-6.862,4.939-8.705
		c1.95-1.219,4.691-1.687,6.438-0.19c2.731,2.339,0.95,7.203,3.108,10.08c1.783,2.38,5.273,2.296,8.199,2.826
		c2.926,0.53,6.221,3.293,4.816,5.914c-0.559,1.042-1.703,1.617-2.812,2.024c-7.012,2.581-15.452,0.692-20.696-4.629"/>
</g>
<g>
	<path style="fill:#F2F1E7;" d="M192.729,14.583c-10.692,0.564-21.645,4.235-28.858,12.148c-4.752,5.213-7.646,11.962-12.697,16.887
		c-8.859,8.638-23.558,10.961-29.492,21.817c-8.269,15.124,6.624,34.977-0.566,50.642c-3.168,6.903-10.441,12.408-10.109,19.996
		c0.276,6.336,5.895,11.058,11.438,14.14c5.543,3.083,11.797,5.656,15.324,10.928c5.965,8.918,2.296,22.929,10.566,29.765
		c5.892,4.87,14.592,3.227,22.005,1.369c29.081-7.288,58.531-13.911,88.482-15.232c29.951-1.322,60.657,2.894,87.456,16.336
		c4.872,2.444,11.032,5.108,15.338,1.765c2.482-1.927,3.349-5.254,3.818-8.361c1.682-11.108,0.221-22.675-4.168-33.017
		c10.651-4.367,21.697-9.215,28.885-18.208c7.188-8.993,8.947-23.416,0.743-31.492c-2.723-2.68-6.509-4.789-7.383-8.507
		c-1.077-4.575,2.804-8.614,5.14-12.693c6.646-11.604-1.438-28.701-14.622-30.929c-5.709-0.965-11.96,0.395-17.075-2.316
		c-6.356-3.369-8.205-11.368-11.42-17.805c-6.37-12.759-20.746-21.057-34.98-20.193c-7.889,0.479-15.739,3.5-23.509,2.05
		c-7.149-1.334-13.119-6.278-20.097-8.333c-16.128-4.75-25.145,6.482-38.691,11.484C218.028,20.601,204.024,13.987,192.729,14.583z"
		/>
	<path style="fill:#F2F1E7;" d="M129.318,339.744c-25.799,19.115-46.867,44.438-61.421,73.03
		c-7.385,14.509-13.104,29.873-16.911,45.704c-1.757,7.302-4.967,15.192-4.321,22.826c1.046,12.365,9.211,10.299,19.04,10.567
		c118.201,3.225,236.799,22.512,354.937,7.857c4.891-0.607,10.006-2.247,14.846-2.585c5.847-0.408,11.106,1.435,16.989-0.391
		c15.313-4.753,14.41-24.737,12.08-37.65c-5.853-32.441-24.003-61.648-46.514-85.73c-22.51-24.082-49.364-43.609-76.039-62.979
		c-3.529-2.563-7.666-5.264-11.92-4.297c-4.166,0.947-6.712,5.01-9.086,8.562c-16.055,24.027-45.111,38.757-73.982,37.505
		c-27.439-1.189-47.864-15.389-63.389-36.784c-5.675-7.819-9.676-11.347-18.038-4.652
		C153.537,320.375,141.819,330.482,129.318,339.744z"/>
</g>
<g>
	<path style="fill:#D2D2CA;" d="M338.541,98.111c-18.302-3.664-36.936,4.872-55.582,4.05c-16.213-0.714-31.943-8.937-41.783-21.843
		c-7.162-9.396-11.127-20.76-15.822-31.601c-4.695-10.842-10.564-21.739-20.208-28.563c-9.645-6.824-23.965-8.309-32.851-0.522
		c-8.229,7.211-10.14,20.39-19.58,25.92c-4.777,2.798-10.613,3.041-15.76,5.08c-8.442,3.344-14.419,11.481-16.624,20.29
		c-2.206,8.809-1.011,18.188,1.778,26.83c1.442,4.467,3.329,9.127,2.287,13.704c-1.653,7.26-9.853,11.151-12.903,17.943
		c-4.056,9.028,3.001,20.004,12.281,23.442s19.646,1.314,29.096-1.629c28.707-8.942,55.761-25.244,85.802-26.51
		c13.849-0.583,27.616,2.104,41.123,5.216c15.863,3.656,31.588,7.918,47.126,12.774c11.149,3.483,24.789,10.504,36.297,4.26
		C388.708,133.121,355.294,101.464,338.541,98.111z"/>
	<path style="fill:#D2D2CA;" d="M149.861,148.277c-3.456,1.126-7.197,2.548-8.97,5.722c-1.084,1.942-1.246,4.248-1.384,6.468
		c-0.467,7.535-0.916,15.253,1.224,22.493c0.978,3.309,2.857,6.794,6.171,7.757c1.511,0.439,3.121,0.285,4.686,0.127
		c32.062-3.233,64.124-6.467,96.186-9.7c3.448-0.348,7.407-1.006,9.166-3.993c1.08-1.834,1.02-4.096,0.939-6.222
		c-0.27-7.118-0.015-15.191,5.257-19.979c4.641-4.214,27.987-7.324,20.856-16.678c-5.623-7.375-31.063-3.542-38.464-3.23
		C213.054,132.407,180.766,138.205,149.861,148.277z"/>
	<path style="fill:#D2D2CA;" d="M47.6,475.54c-0.953,5.703-1.255,12.567,3.268,16.168c2.573,2.05,6.06,2.426,9.341,2.666
		c34.677,2.539,69.544-1.234,104.271,0.48c17.981,0.889,35.854,3.245,53.775,4.955c71.415,6.814,143.421,3.35,214.908-2.664
		c9.724-0.818,21.68-3.474,24.073-12.934c1.476-5.829-1.782-12.056-6.544-15.727c-4.761-3.67-10.765-5.275-16.643-6.543
		c-47.438-10.233-97.323-3.938-144.644-14.704c-13.339-3.035-26.541-7.495-37.911-15.1c-11.371-7.606-20.838-18.617-24.686-31.744
		c-4.473-15.254-1.298-32.539-8.664-46.625c-5.16-9.866-14.698-16.55-23.882-22.843c-5.427-3.718-10.853-7.437-16.278-11.155
		c-2.326-1.594-4.723-3.22-7.469-3.863c-10.177-2.383-21.066,11.396-29.145,16.706c-11.962,7.861-23.115,16.876-33.265,26.972
		c-20.11,20.001-36.267,43.981-47.218,70.146C54.738,444.429,50.229,459.821,47.6,475.54z"/>
</g>
<g>
	<path style="fill:#DB3333;" d="M162.99,471.419c0.302,7.955,0.718,16.308,4.873,23.1c4.154,6.791,13.392,11.177,20.333,7.277
		c0.778-14.863,0.013-29.761-0.957-44.613c-3.152-48.271-8.474-96.555-6.583-144.893c0.607-15.519-18.311-1.152-21.512,5.853
		c-5.298,11.59-0.793,30.699-0.332,42.886C160.205,397.826,161.598,434.622,162.99,471.419z"/>
	<path style="fill:#DB3333;" d="M317.458,502.97c5.869,0.859,11.693-2.723,15.116-7.567c3.424-4.844,4.893-10.771,6.113-16.575
		c7.568-35.958,8.266-72.958,8.934-109.697c0.202-11.076,0.404-22.151,0.605-33.227c0.196-10.834-0.922-29.453-15.396-30.662
		c-14.082-1.176-9.313,26.246-9.633,35.279c-1.227,34.697-2.451,69.396-3.678,104.093
		C319.345,449.557,316.526,502.833,317.458,502.97z"/>
</g>
<path d="M469.113,480.204c-0.435-6.799-1.138-13.613-2.14-20.352c-1.899-12.781-5.652-25.729-9.914-37.919
	c-7.964-22.783-24.42-42.966-41.983-59.161c-10.526-9.706-22.146-18.086-33.713-26.487c-5.576-4.049-11.068-8.187-16.902-11.862
	c-5.028-3.167-10.354-6.038-15.101-9.641c-0.427-1.167-0.97-2.306-1.667-3.405c-3.847-6.059-10.62-10.019-17.32-12.83
	c0.762-0.823,1.513-1.66,2.248-2.513c5.711-6.628,10.915-13.766,15.859-20.978c2.253-3.286,4.328-6.598,5.924-10.249
	c0.425-0.972,0.989-3.552,2.046-3.925c1.018-0.36,4.262,1.25,5.44,1.378c15.865,1.726,28.374-15.79,24.584-30.481
	c-1.693-6.563-6.555-11.749-12.725-14.364c-1.732-0.735-3.463-1.252-5.308-1.622c-0.737-0.148-1.61-0.326-2.377-0.406
	c-0.265-0.028-0.442-0.021-0.568,0.002c-0.711-2.141-0.285-5.101-0.315-7.278c-0.039-2.774-0.363-5.443-0.91-8.162
	c-0.086-0.428-0.24-0.799-0.424-1.144c1.42-1.221,2.516-2.99,3.121-5.414c1.918-7.667,1.26-17.679,0.204-25.358
	c-0.357-2.602-0.931-5.113-1.738-7.511c9.905-2.384,19.82-6.765,26.783-14.336c6.855-7.454,9.103-17.408,8.092-27.304
	c-0.55-5.377-1.708-10.646-4.376-15.403c-1.043-1.858-2.317-3.814-3.822-5.336c-0.52-0.526-1.182-1.113-1.83-1.571
	c0.549-0.638,1.036-1.229,1.299-1.477c1.125-1.063,2.104-2.045,3.045-3.272c3.092-4.027,5.146-9.074,5.39-14.166
	c0.959-19.996-20.183-32.461-37.702-33.966c-2.31-0.198-4.4-0.042-6.694,0.15c0.131-0.011-0.132,0.041-0.508,0.102
	c0.369-0.957,0.267-2.728,0.27-3.011c0.053-5.448-1.146-10.033-4.272-14.515c-5.067-7.263-12.737-12.61-20.715-16.245
	c-8.563-3.901-17.889-6.355-27.328-5.065c-5.023,0.686-9.95,2.294-14.399,4.75c-3.04,1.678-1.502,2.737-3.943,0.248
	c-1.514-1.543-2.962-3.091-4.813-4.247c-9.233-5.763-22.556-7.471-32.896-4.24c-4.842,1.513-9.479,3.964-13.4,7.182
	c-1.686,1.383-3.47,4.105-5.447,5.015c-2.773,1.276-5.774-0.487-8.445-1.364c-18.72-6.141-42.647-3.739-57.483,10.281
	c-3.313,3.131-6.045,6.911-7.754,11.138c-0.722,1.784-1.022,3.796-1.798,5.535c-1.233,2.769-3.628,2.984-6.367,4.091
	c-8.839,3.573-16.664,8.426-22.526,16.071c-7.591,9.9-10.958,22.132-8.844,34.488c0.536,3.127,1.418,6.163,2.64,9.092
	c1.021,2.449,3.511,5.857,2.406,8.621c-0.859,2.148-3.945,4.332-5.486,6.005c-1.932,2.1-3.883,4.301-5.405,6.728
	c-5.816,9.269-3.499,20.575,3.687,28.385c5.507,5.983,14.755,10.287,23.061,9.099c-0.037,0.484-0.06,0.976-0.057,1.48
	c0.029,4.431,1.09,8.935,1.518,13.347c0.489,5.047,1.058,10.081,3.061,14.789c0.85,1.994,1.877,3.545,3.053,4.729
	c-4.459,4.606-6.234,14.268-4.996,20.265c-8.852-0.954-19.515,7.979-22.217,15.682c-2.156,6.146-0.832,13.401,3.245,18.471
	c4.62,5.747,11.749,7.382,18.822,6.494c1.146-0.144,2.761-0.179,3.817-0.792c0.018-0.01,0.029-0.016,0.047-0.026
	c0.115,0.383,0.234,0.776,0.252,1.15c0.168,3.722,2.306,7.89,3.586,11.317c2.946,7.891,6.533,15.424,11.575,22.205
	c3.344,4.497,7.146,8.717,11.29,12.596c-5.14,2.367-10.311,6.361-12.79,10.506c-1.118,1.869-1.717,3.97-2.003,6.184
	c-9.586,2.991-18.324,9.248-26.287,15.12c-9.496,7.003-18.24,14.915-26.318,23.508c-15.275,16.248-28.458,34.6-38.651,54.445
	c-10.297,20.046-18.91,42.604-19.837,65.332c-0.334,8.199-1.451,17.954,8.715,20.065c10.562,2.193,22.549,1.053,33.287,1.254
	c14.694,0.275,29.396,0.182,44.088,0.575c7.301,0.195,14.592,0.423,21.894,0.575c5.166,0.107,10.396,1.446,15.155-0.228
	c4.394,3.196,10.156,4.362,15.535,5.072c21.213,2.798,42.895,3.76,64.254,4.84c11.303,0.572,22.641,1.118,33.961,1.055
	c10.245-0.058,20.463-0.882,30.703-0.971c3.86-0.033,7.751-0.13,11.43-0.847c6.318-0.035,12.601-0.643,18.931-0.591
	c7.177,0.06,14.346,0.299,21.524,0.19c13.284-0.201,26.316-1.968,39.532-3.041c12.945-1.05,25.968-2.047,38.947-2.41
	c9.533-0.266,21.345-1.154,26.316-10.715C469.384,489.468,469.403,484.75,469.113,480.204z M153.004,491.371
	c-6.233-0.22-12.482-0.178-18.721-0.368c-11.188-0.34-22.382-0.331-33.573-0.367c-11.629-0.037-23.254-0.264-34.881-0.412
	c-2.583-0.032-5.16-0.111-7.741-0.236c-1.236-0.06-4.195,0.266-5.222-0.525c-1.794-1.382-0.581-8.637-0.5-10.677
	c0.825-20.703,8.772-41.512,18.042-59.82c9.162-18.1,20.77-34.935,34.353-49.997c14.348-15.909,31.024-29.999,49.239-41.365
	c0.318,3.882,0.992,7.76,1.185,11.118c1.276,22.312,0.677,44.676,1.661,66.998c0.98,22.238,2.796,44.469,1.783,66.744
	c-0.289,6.346-0.939,13.278,1.051,19.414C157.455,491.67,155.231,491.449,153.004,491.371z M137.479,156.078
	c-7.923-0.174-17.704-6.458-21.108-13.266c-4.973-9.94,2.774-16.107,8.808-22.917c2.747-3.101,4.692-6.291,4.312-10.579
	c-0.395-4.448-3.171-8.286-4.469-12.48c-3.175-10.258-1.408-21.158,4.671-29.994c5.405-7.855,13.523-11.752,22.353-14.541
	c3.798-1.199,7.14-2.621,9.38-6.11c1.985-3.093,2.36-6.803,4.04-10.012c8.393-16.053,32.647-19.442,48.299-15.193
	c4.455,1.209,8.791,3.428,13.511,3.174c4.215-0.227,7.299-2.564,10.261-5.359c7.951-7.501,18.1-10.115,28.703-7.352
	c4.797,1.25,8.182,3.039,11.626,6.467c2.704,2.692,5.589,4.735,9.611,4.051c4.431-0.754,8.241-4.349,12.638-5.612
	c4.238-1.218,8.622-1.502,12.971-0.77c7.847,1.32,15.674,4.773,22.041,9.534c3.027,2.264,5.897,4.984,7.857,8.242
	c2.61,4.34,1.102,8.778,2.043,13.489c1.988,9.953,9.934,6.771,17.287,7.507c7.854,0.785,16.104,4.219,21.594,9.993
	c7.188,7.558,6.396,16.882-0.992,23.741c-2.448,2.271-5.639,5.128-5.523,8.811c0.132,4.226,3.816,5.728,6.554,8.148
	c7.175,6.343,7.701,20.471,3.605,28.554c-5.142,10.148-18.015,13.757-28.26,15.941c-0.013,0.003-0.025,0.007-0.039,0.01
	c-0.973-1.126-2.035-2.202-3.2-3.215c-13.914-12.099-35.354-15.67-52.914-18.495c-21.794-3.505-43.702-3.889-65.703-2.641
	c-21.521,1.221-43.236,3.633-63.779,10.473c-8.268,2.752-16.743,6.056-24.548,9.967C144.186,148.11,139.781,151.467,137.479,156.078
	z M357.534,190.791c-0.728,0.978-1.257,0.421-2.965-0.121c-16.515-5.241-33.003-11.169-50.249-13.788
	c-13.998-2.126-28.182-2.807-42.328-2.843c-36.279-0.091-72.999,4.596-107.655,15.473c-2.171,0.682-3.324,1.464-4.738-0.616
	c-0.976-1.437-1.315-3.758-1.665-5.437c-0.955-4.587-1.117-9.303-1.8-13.933c-0.593-4.018-1.91-8.138,1.019-11.533
	c2.335-2.707,5.984-4.306,9.184-5.718c16.293-7.189,32.979-12.37,50.608-15.045c37.8-5.737,78.151-5.878,115.252,3.959
	c8.146,2.16,16.464,4.556,23.633,9.119c8.387,5.338,11.9,13.217,12.349,22.997c0.188,4.118-0.054,8.283-0.18,12.403
	C357.96,186.925,358.318,189.738,357.534,190.791z M157.605,273.95c-3.336-6.951-4.823-14.405-7.674-21.439
	c-2.491-6.144-6.679-4.851-11.853-3.802c-8.419,1.706-16.997-4.229-14.255-13.514c1.271-4.307,4.893-7.953,8.854-9.914
	c5.749-2.847,15.69-2.981,17.138,4.72c0.732,3.898,1.008,9.016,4.245,11.8c3.677,3.162,8.931,1.039,12.07-1.907
	c4.436-4.162,4.045-9.908,3.098-15.423c-0.502-2.926-1.66-6.466-0.028-9.238c1.594-2.708,5.06-4.345,7.006-6.868
	c2.98-3.862,5.516-11.155,3.593-16.268c14.788-3.431,29.938-5.665,44.893-7.029c22.557-2.058,45.352-2.612,67.907-0.238
	c11.567,1.218,22.838,3.562,33.938,6.588c0.42,0.258,0.846,0.499,1.272,0.732c-1.357,3.169-2.975,5.606-2.387,9.876
	c0.633,4.601,3.271,8.595,7.159,11.11c1.733,1.121,4.901,1.714,6.196,3.356c1.943,2.464,0.146,6.837,0.02,9.625
	c-0.175,3.883,0.618,8.46,3.321,11.434c6.604,7.266,16.072-0.966,19.228-7.484c0.796-1.644,1.528-3.614,2.125-5.742
	c2.251,0.513,4.664,0.75,6.815,1.705c12.046,5.347,8.196,23.581-3.766,26.399c-5.535,1.304-10.645-3.717-15.842,0.198
	c-2.198,1.655-3.336,4.035-4.426,6.496c-1.602,3.617-3.465,6.92-5.676,10.213c-8.59,12.794-18.149,25.706-30.82,34.739
	c-24.35,17.359-55.404,21.053-84.39,16.426C197.332,316.026,170.231,300.257,157.605,273.95z M316.358,311.096
	c-1.55,3.348-3.358,6.585-5.421,9.645c-4.438,6.587-10.272,12.358-16.976,16.627c-12.579,8.01-27.821,11.04-42.586,10.558
	c-14.732-0.481-30.547-4.906-43.868-11.157c-8.74-4.101-18.242-12.153-23.502-21.393c3.071,1.926,6.233,3.683,9.469,5.236
	c29.123,13.982,67.609,15.407,97.785,4.039C300.292,321.248,308.719,316.722,316.358,311.096z M177.551,494.937
	c-8.432-2.49-8.952-9.267-8.658-17.107c0.71-18.915-0.415-37.695-1.657-56.571c-1.426-21.68-1.868-43.317-2.389-65.03
	c-0.258-10.732-1.128-21.375-1.776-32.081c-0.236-3.889,0.316-5.724,3.22-8.413c2.563-2.373,5.3-5.041,8.266-7.09
	c0.571,0.458,1.153,0.903,1.733,1.349c-1.472,4.799-0.297,10.852-0.039,15.557c0.468,8.537,1.146,17.052,1.468,25.598
	c0.63,16.739,0.885,33.48,1.747,50.211c0.89,17.266,1.969,34.522,2.751,51.794c0.381,8.392,0.771,16.786,1,25.184
	c0.152,5.547-0.444,12.16,0.705,17.955C181.753,495.971,179.616,495.547,177.551,494.937z M321.088,325.646
	c-0.547,8.326-1.775,16.594-2.387,24.916c-1.273,17.334-2.135,34.766-2.664,52.138c-0.532,17.495-0.775,34.996-1.139,52.494
	c-0.316,15.201-2.029,30.349-2.293,45.535c-37.222,1.746-74.282-0.019-111.412-3.053c-3.006-0.245-6.111-0.382-9.226-0.583
	c0.242-6.142-0.807-12.766-1.042-18.757c-0.329-8.398-0.818-16.793-1.298-25.184c-0.967-16.91-1.923-33.822-2.801-50.737
	c-0.851-16.405-1.155-32.815-1.706-49.23c-0.264-7.852-0.584-15.714-1.363-23.533c-0.102-1.027-0.234-2.057-0.379-3.087
	c2.139,2.895,4.496,5.494,6.521,7.561c10.081,10.291,24.097,14.561,37.541,18.497c25.352,7.421,55.368,5.036,76.652-11.692
	c6.071-4.772,11.269-10.557,15.453-17.047c0.515-0.798,1.059-1.66,1.609-2.55C321.179,322.804,321.18,324.251,321.088,325.646z
	 M331.307,488.401c-1.246,3.014-2.83,6.21-5.123,8.569c-1.426,1.466-3.025,2.312-4.758,2.82c0.19-14.52,1.68-29.015,1.878-43.548
	c0.233-17.147-0.592-34.296-0.222-51.441c0.36-16.69,1.178-33.412,2.155-50.077c0.489-8.322,1.427-16.604,1.971-24.922
	c0.437-6.68-0.145-13.247-0.354-19.889c0.182-0.538,0.364-1.076,0.513-1.613c5.147,2.208,10.76,5.483,12.478,10.395
	c1.345,3.844,0.667,8.357,0.743,12.367c0.097,5.129,0.353,10.255,0.626,15.376c1.057,19.789,1.301,39.303-0.068,59.089
	c-1.338,19.327-2.685,38.725-4.456,58.015C335.914,471.974,334.563,480.531,331.307,488.401z M453.25,492.707
	c-4.875,1.607-10.329,1.204-15.387,1.297c-11.933,0.22-24.001,1.399-35.897,2.37c-13.878,1.133-27.551,2.951-41.505,3.088
	c-7.283,0.072-15.244-0.72-22.958-0.389c3.026-4.853,4.998-10.508,6.418-15.879c2.613-9.886,3.279-20.203,3.936-30.365
	c0.729-11.28,1.696-22.539,2.606-33.806c2.049-25.395,2.172-50.233,0.883-75.659c-0.305-5.985-0.471-11.957-0.495-17.948
	c-0.003-0.558-0.013-1.115-0.028-1.67c5.466,4.54,11.556,8.335,17.2,12.723c9.487,7.375,19.19,14.469,28.478,22.099
	c18.073,14.847,33.99,31.95,45.477,52.446c5.992,10.694,8.748,22.552,11.994,34.27c3.293,11.885,4.976,24.152,5.453,36.479
	C459.627,486.981,458.633,490.933,453.25,492.707z"/>
<path d="M201.627,224.671c5.005,4.251,13.452,1.348,15.329-5.468c1.045-3.794,0.266-8.376-2.478-11.292
	c-3.031-3.222-8.001-3.982-11.855-1.805C195.848,209.934,195.076,220.723,201.627,224.671z"/>
<path d="M294.123,221.937c8.428,3.284,15.33-5.487,13.844-13.307c-1.589-8.358-12.729-11.305-17.4-3.676
	c-1.566,2.557-1.929,5.834-1.251,8.747C288.967,217.121,290.249,220.427,294.123,221.937z"/>
<path d="M250.752,266.763c4.849,0.056,10.063-0.968,13.691-4.395c3.246-3.066,5.563-8.245,2.896-12.348
	c-0.438-0.674-1.41-0.873-2.005-0.258c-1.87,1.934-2.669,4.661-4.724,6.42c-2.146,1.836-5.248,2.643-7.997,2.866
	c-7.226,0.586-13.983-1.291-15.005-9.353c-0.2-1.584-2.307-2.528-3.242-0.878C227.997,260.048,241.362,266.654,250.752,266.763z"/>
<path d="M247.184,293.026c6.357,0.296,12.855-0.947,18.74-3.32c4.604-1.856,12.172-5.178,12.292-10.935
	c0.032-1.544-1.233-2.429-2.61-2.61c-4.155-0.546-8.838,3.759-12.528,5.342c-4.601,1.973-9.617,3.057-14.624,3.057
	c-4.716,0-9.282-1.006-13.463-3.207c-4.055-2.134-7.205-6.438-11.604-7.729c-0.787-0.23-1.895,0.28-2.033,1.155
	C219.439,286.842,238.267,292.61,247.184,293.026z"/>
<g>
</g>
<g>
</g>
<g>
</g>
<g>
</g>
<g>
</g>
<g>
</g>
<g>
</g>
<g>
</g>
<g>
</g>
<g>
</g>
<g>
</g>
<g>
</g>
<g>
</g>
<g>
</g>
<g>
</g>
</svg>
