<?xml version="1.0" encoding="iso-8859-1"?>
<!-- Generator: Adobe Illustrator 19.0.0, SVG Export Plug-In . SVG Version: 6.00 Build 0)  -->
<svg version="1.1" id="Capa_1" xmlns="http://www.w3.org/2000/svg" xmlns:xlink="http://www.w3.org/1999/xlink" x="0px" y="0px"
	 viewBox="0 0 512 512" style="enable-background:new 0 0 512 512;" xml:space="preserve">
<path style="fill:#C69C6D;" d="M427.663,512H84.335c-9.599,0-17.381-7.782-17.381-17.381V45.653c0-9.599,7.782-17.381,17.381-17.381
	h343.329c9.599,0,17.381,7.782,17.381,17.381v448.965C445.045,504.218,437.263,512,427.663,512z"/>
<path style="fill:#BA8B5D;" d="M427.663,28.272h-48.191c9.599,0,17.381,7.782,17.381,17.381v448.965
	c0,9.599-7.782,17.381-17.381,17.381h48.191c9.599,0,17.381-7.782,17.381-17.381V45.653
	C445.045,36.054,437.263,28.272,427.663,28.272z"/>
<path style="fill:#FFFFFF;" d="M397.791,478.254H114.207c-4.464,0-8.083-3.619-8.083-8.083V28.272h299.749v441.899
	C405.874,474.635,402.255,478.254,397.791,478.254z"/>
<path style="fill:#F2F2F2;" d="M357.682,28.272v441.899c0,4.464-3.619,8.083-8.083,8.083h48.191c4.464,0,8.083-3.619,8.083-8.083
	V28.272H357.682z"/>
<g>
	<path style="fill:#BFE2DF;" d="M156.022,0c-4.26,0-7.713,3.453-7.713,7.713v42.873c0,4.26,3.453,7.713,7.713,7.713
		c4.26,0,7.713-3.453,7.713-7.713V7.713C163.735,3.453,160.283,0,156.022,0z"/>
	<path style="fill:#BFE2DF;" d="M206.011,0c-4.26,0-7.713,3.453-7.713,7.713v42.873c0,4.26,3.453,7.713,7.713,7.713
		c4.26,0,7.713-3.453,7.713-7.713V7.713C213.724,3.453,210.271,0,206.011,0z"/>
	<path style="fill:#BFE2DF;" d="M255.999,0c-4.26,0-7.713,3.453-7.713,7.713v42.873c0,4.26,3.453,7.713,7.713,7.713
		c4.26,0,7.714-3.453,7.714-7.713V7.713C263.713,3.453,260.259,0,255.999,0z"/>
	<path style="fill:#BFE2DF;" d="M305.987,0c-4.26,0-7.713,3.453-7.713,7.713v42.873c0,4.26,3.453,7.713,7.713,7.713
		s7.713-3.453,7.713-7.713V7.713C313.7,3.453,310.247,0,305.987,0z"/>
	<path style="fill:#BFE2DF;" d="M355.976,0c-4.26,0-7.713,3.453-7.713,7.713v42.873c0,4.26,3.453,7.713,7.713,7.713
		s7.713-3.453,7.713-7.713V7.713C363.689,3.453,360.236,0,355.976,0z"/>
</g>
<g>
	<path style="fill:#FCEFC0;" d="M149.447,360.129h213.104c4.26,0,7.713-3.453,7.713-7.713s-3.453-7.713-7.713-7.713H149.447
		c-4.26,0-7.713,3.453-7.713,7.713S145.188,360.129,149.447,360.129z"/>
	<path style="fill:#FCEFC0;" d="M362.551,383.888H149.447c-4.26,0-7.713,3.453-7.713,7.713s3.453,7.713,7.713,7.713h213.104
		c4.26,0,7.713-3.453,7.713-7.713S366.811,383.888,362.551,383.888z"/>
	<path style="fill:#FCEFC0;" d="M362.551,423.073H149.447c-4.26,0-7.713,3.453-7.713,7.713s3.453,7.713,7.713,7.713h213.104
		c4.26,0,7.713-3.453,7.713-7.713S366.811,423.073,362.551,423.073z"/>
</g>
<path style="fill:#E5EBF6;" d="M351.47,87.08h-48.168c-0.652,0-1.206,0.47-1.307,1.114c-1.676,10.646-14.411,94.709-4.044,126.842
	c4.705,14.583,11.812,25.858,17.863,33.586c5.888,7.519,17.257,7.519,23.145,0c6.052-7.728,13.158-19.003,17.863-33.586
	c10.367-32.133-2.369-116.196-4.044-126.842C352.676,87.55,352.122,87.08,351.47,87.08z"/>
<g>
	<path style="fill:#D1DCED;" d="M352.777,88.194c-0.101-0.644-0.655-1.114-1.307-1.114h-41.689
		c1.893,23.113,7.1,98.023-2.214,126.893c-1.482,4.592-3.205,8.847-5.055,12.776c4.136,9.035,8.985,16.361,13.301,21.873
		c5.888,7.519,17.257,7.519,23.145,0c6.052-7.728,13.158-19.003,17.863-33.586C367.189,182.903,354.453,98.84,352.777,88.194z"/>
	<path style="fill:#D1DCED;" d="M355.842,301.508H335.1V246.44c0-4.26-3.453-7.713-7.713-7.713s-7.713,3.453-7.713,7.713v55.069
		h-20.742c-4.26,0-7.713,3.453-7.713,7.713s3.453,7.713,7.713,7.713h56.911c4.26,0,7.713-3.453,7.713-7.713
		S360.102,301.508,355.842,301.508z"/>
	<path style="fill:#D1DCED;" d="M228.395,301.508h-20.743V246.44c0-4.26-3.453-7.713-7.713-7.713c-4.26,0-7.713,3.453-7.713,7.713
		v55.069h-20.742c-4.26,0-7.713,3.453-7.713,7.713s3.453,7.713,7.713,7.713h56.912c4.26,0,7.713-3.453,7.713-7.713
		S232.655,301.508,228.395,301.508z"/>
</g>
<path style="fill:#E5EBF6;" d="M240.342,140.353c-0.763-25.568,7.33-46.544,9.618-51.93c0.272-0.64-0.198-1.344-0.893-1.344h-98.256
	c-0.695,0-1.165,0.704-0.893,1.344c2.288,5.386,10.381,26.362,9.618,51.93c-0.888,29.744-23.922,65.704-5.08,89.677
	c11.47,14.593,25.829,20.632,35.31,23.123c6.67,1.753,13.676,1.753,20.347,0c9.481-2.492,23.84-8.531,35.31-23.123
	C264.264,206.057,241.23,170.097,240.342,140.353z"/>
<path style="fill:#D1DCED;" d="M240.342,140.353c-0.763-25.568,7.33-46.544,9.618-51.93c0.272-0.64-0.198-1.344-0.893-1.344h-47.055
	c0,0-11.099,23.529-10.211,53.273s23.922,65.704,5.08,89.677c-6.606,8.405-14.169,13.967-21.209,17.653
	c5.178,2.711,10.075,4.414,14.092,5.47c6.67,1.753,13.676,1.753,20.347,0c9.481-2.492,23.84-8.531,35.31-23.123
	C264.264,206.057,241.23,170.097,240.342,140.353z"/>
<path style="fill:#FF4C4D;" d="M158.595,121.579c0.738,5.822,1.139,12.141,0.941,18.774c-0.888,29.744-23.922,65.704-5.08,89.677
	c11.467,14.59,25.822,20.629,35.304,23.122c6.669,1.753,13.69,1.753,20.359,0c9.481-2.493,23.836-8.532,35.304-23.122
	c18.842-23.973-4.192-59.932-5.08-89.677c-0.198-6.632,0.203-12.951,0.941-18.774C241.284,121.579,158.595,121.579,158.595,121.579z
	"/>
<path style="fill:#E2334C;" d="M251.198,191.751c-0.093-0.486-0.189-0.973-0.289-1.46c-0.694-3.414-1.531-6.869-2.426-10.341
	c-0.256-0.992-0.516-1.986-0.779-2.98c-0.658-2.486-1.333-4.978-1.995-7.466c-0.265-0.995-0.528-1.99-0.787-2.984
	c-1.294-4.969-2.487-9.911-3.334-14.757c-0.254-1.454-0.477-2.899-0.663-4.333c-0.309-2.391-0.514-4.753-0.583-7.076
	c-0.049-1.645-0.06-3.269-0.04-4.873c0.001-0.046,0.002-0.091,0.003-0.137c0.022-1.567,0.074-3.113,0.155-4.635
	c0.003-0.047,0.006-0.092,0.008-0.139c0.082-1.527,0.192-3.03,0.327-4.506c0.002-0.025,0.005-0.049,0.007-0.074
	c0.137-1.493,0.297-2.958,0.479-4.393c0.001-0.006,0.001-0.011,0.002-0.017h-48.541c-0.738,5.822-1.138,12.142-0.94,18.774
	c0.888,29.744,23.922,65.704,5.08,89.677c-6.606,8.405-14.169,13.967-21.209,17.653c0.004,0.002,0.008,0.004,0.013,0.007
	c1.877,0.982,3.716,1.829,5.49,2.564c0.073,0.03,0.147,0.063,0.219,0.092c0.475,0.195,0.942,0.376,1.407,0.555
	c0.197,0.076,0.395,0.152,0.59,0.225c0.4,0.149,0.794,0.292,1.185,0.429c0.265,0.093,0.528,0.184,0.789,0.272
	c0.331,0.112,0.66,0.223,0.983,0.327c0.34,0.109,0.673,0.211,1.004,0.311c0.244,0.074,0.492,0.152,0.731,0.222
	c0.558,0.162,1.106,0.316,1.635,0.455c0.013,0.003,0.027,0.008,0.04,0.011c6.668,1.753,13.687,1.753,20.355,0
	c0.38-0.1,0.781-0.216,1.176-0.327c0.22-0.062,0.43-0.116,0.655-0.182c0.384-0.113,0.787-0.243,1.184-0.367
	c0.252-0.079,0.495-0.15,0.752-0.234c0.411-0.134,0.839-0.287,1.261-0.434c0.257-0.09,0.505-0.169,0.766-0.264
	c0.434-0.157,0.882-0.334,1.326-0.505c0.262-0.101,0.517-0.192,0.782-0.298c0.363-0.145,0.737-0.31,1.105-0.465
	c0.358-0.151,0.71-0.291,1.072-0.451c0.373-0.165,0.755-0.35,1.133-0.525c0.367-0.17,0.729-0.33,1.1-0.51
	c0.565-0.275,1.137-0.573,1.71-0.872c0.191-0.1,0.378-0.188,0.57-0.29c0.57-0.305,1.146-0.635,1.722-0.965
	c0.198-0.113,0.394-0.215,0.592-0.332c0.449-0.264,0.902-0.554,1.354-0.833c0.329-0.204,0.655-0.394,0.985-0.606
	c0.437-0.282,0.875-0.59,1.313-0.888c0.345-0.235,0.69-0.455,1.036-0.7c0.619-0.438,1.238-0.906,1.856-1.378
	c0.165-0.125,0.33-0.239,0.494-0.367c0.543-0.422,1.083-0.876,1.624-1.325c0.238-0.198,0.478-0.381,0.716-0.584
	c0.604-0.517,1.204-1.066,1.803-1.618c0.171-0.157,0.344-0.301,0.514-0.461c0.691-0.651,1.376-1.334,2.057-2.034
	c0.075-0.077,0.151-0.146,0.226-0.224c0.644-0.669,1.279-1.372,1.911-2.087c0.108-0.122,0.22-0.234,0.328-0.358
	c0.737-0.846,1.466-1.725,2.182-2.637c3.239-4.12,5.24-8.595,6.329-13.331c0.198-0.861,0.366-1.731,0.506-2.609
	C253.375,207.067,252.688,199.526,251.198,191.751z"/>
<path style="fill:#C8E8E5;" d="M357.203,121.579H297.57c-3.374,30.306-6.314,72.707,0.381,93.457
	c4.704,14.579,11.808,25.851,17.858,33.579c6.107,7.801,17.047,7.801,23.155,0c6.05-7.728,13.154-19,17.858-33.579
	C363.516,194.286,360.577,151.885,357.203,121.579z"/>
<path style="fill:#B6D8D4;" d="M357.523,212.632c0.121-0.451,0.239-0.91,0.353-1.378c0.052-0.215,0.105-0.431,0.156-0.65
	c0.121-0.522,0.237-1.055,0.35-1.595c0.031-0.152,0.065-0.299,0.096-0.452c0.14-0.693,0.272-1.402,0.398-2.123
	c0.032-0.184,0.061-0.373,0.093-0.559c0.093-0.552,0.182-1.111,0.267-1.679c0.038-0.252,0.075-0.506,0.111-0.761
	c0.078-0.547,0.152-1.102,0.223-1.662c0.029-0.231,0.06-0.459,0.088-0.692c0.095-0.781,0.185-1.572,0.267-2.377
	c0.01-0.098,0.018-0.198,0.028-0.296c0.072-0.717,0.139-1.443,0.201-2.177c0.023-0.269,0.044-0.541,0.066-0.812
	c0.047-0.591,0.092-1.187,0.133-1.788c0.019-0.28,0.039-0.56,0.057-0.842c0.045-0.699,0.086-1.404,0.123-2.115
	c0.009-0.167,0.019-0.331,0.028-0.499c0.044-0.872,0.082-1.753,0.115-2.641c0.009-0.252,0.017-0.507,0.025-0.761
	c0.023-0.661,0.043-1.326,0.06-1.996c0.008-0.3,0.015-0.602,0.021-0.904c0.015-0.679,0.027-1.362,0.036-2.048
	c0.003-0.251,0.008-0.5,0.011-0.751c0.01-0.928,0.016-1.862,0.017-2.802c0-0.154-0.001-0.31-0.001-0.464
	c0-0.796-0.004-1.596-0.011-2.4c-0.002-0.296-0.006-0.592-0.009-0.889c-0.008-0.699-0.018-1.401-0.03-2.104
	c-0.005-0.284-0.009-0.567-0.015-0.851c-0.018-0.905-0.039-1.812-0.063-2.723c-0.002-0.058-0.003-0.116-0.004-0.175
	c-0.027-0.99-0.06-1.984-0.095-2.98c-0.009-0.239-0.018-0.478-0.027-0.717c-0.028-0.764-0.059-1.529-0.091-2.295
	c-0.012-0.278-0.024-0.556-0.036-0.834c-0.036-0.81-0.074-1.621-0.115-2.433c-0.009-0.183-0.017-0.367-0.027-0.55
	c-0.052-1.015-0.107-2.031-0.165-3.047c-0.006-0.102-0.012-0.204-0.018-0.306c-0.052-0.901-0.107-1.802-0.164-2.701
	c-0.015-0.235-0.03-0.47-0.045-0.705c-0.053-0.823-0.108-1.644-0.165-2.464c-0.013-0.187-0.025-0.374-0.039-0.561
	c-0.143-2.041-0.297-4.072-0.459-6.086c-0.011-0.139-0.023-0.277-0.034-0.416c-0.072-0.885-0.145-1.768-0.22-2.646
	c-0.013-0.148-0.025-0.296-0.038-0.444c-0.262-3.049-0.542-6.049-0.833-8.977c-0.008-0.08-0.016-0.161-0.024-0.241
	c-0.297-2.98-0.605-5.885-0.917-8.685h-45.19c1.503,31.498,1.915,72.679-4.446,92.394c-1.482,4.592-3.205,8.847-5.055,12.776
	c2.063,4.507,4.304,8.589,6.568,12.233c0.015,0.025,0.031,0.049,0.046,0.073c0.529,0.851,1.06,1.675,1.59,2.478
	c0.044,0.067,0.089,0.136,0.133,0.202c0.541,0.815,1.081,1.607,1.618,2.371c0.044,0.062,0.087,0.121,0.131,0.183
	c0.464,0.658,0.924,1.293,1.382,1.913c0.123,0.166,0.245,0.332,0.367,0.496c0.493,0.659,0.982,1.304,1.463,1.918
	c0.028,0.036,0.06,0.065,0.088,0.1c5.881,7.383,17.085,7.385,22.97,0.009c0.031-0.039,0.065-0.071,0.096-0.11
	c1.134-1.449,2.305-3.022,3.491-4.718c0.053-0.075,0.106-0.155,0.158-0.231c1.53-2.201,3.082-4.602,4.607-7.208
	c0.029-0.049,0.057-0.101,0.086-0.15c3.519-6.034,6.891-13.137,9.516-21.271c0.19-0.588,0.369-1.198,0.544-1.82
	C357.419,213.024,357.471,212.827,357.523,212.632z"/>
<g>
</g>
<g>
</g>
<g>
</g>
<g>
</g>
<g>
</g>
<g>
</g>
<g>
</g>
<g>
</g>
<g>
</g>
<g>
</g>
<g>
</g>
<g>
</g>
<g>
</g>
<g>
</g>
<g>
</g>
</svg>
