<?xml version="1.0" encoding="iso-8859-1"?>
<!-- Generator: Adobe Illustrator 19.0.0, SVG Export Plug-In . SVG Version: 6.00 Build 0)  -->
<svg version="1.1" id="Capa_1" xmlns="http://www.w3.org/2000/svg" xmlns:xlink="http://www.w3.org/1999/xlink" x="0px" y="0px"
	 viewBox="0 0 512.001 512.001" style="enable-background:new 0 0 512.001 512.001;" xml:space="preserve">
<circle style="fill:#FFFFFF;" cx="397.94" cy="113.983" r="103.984"/>
<g>
	<path style="fill:#EDF2FA;" d="M139.41,125.981H24.002c-7.731,0-13.998-6.267-13.998-13.998l0,0
		c0-7.731,6.267-13.998,13.998-13.998H139.41"/>
	<path style="fill:#EDF2FA;" d="M141.729,97.985h114.365l0,0c-15.154,22.503-40.506,35.995-67.635,35.995h-46.73V97.985z"/>
</g>
<circle style="fill:#FF8E4B;" cx="430.136" cy="430.125" r="71.795"/>
<circle style="fill:#ADE5FF;" cx="173.974" cy="338.029" r="163.895"/>
<circle style="fill:#EDF2FA;" cx="173.974" cy="338.029" r="127.981"/>
<path style="fill:#FFFFFF;" d="M259.535,343.752c0-12.213-7.668-23.048-19.504-29.819c-10.126-5.793-18.172-14.705-22.829-25.401
	c-7.445-17.104-24.493-29.065-44.339-29.065c-20.038,0-37.227,12.191-44.558,29.561c-4.516,10.701-12.237,19.648-22.118,25.753
	c-11.02,6.81-18.074,17.256-18.074,28.971c0,14.241,10.425,26.604,25.73,32.838c10.454,4.258,19.053,11.964,25.105,21.494
	c7.121,11.213,19.649,18.656,33.916,18.656c14.236,0,26.74-7.41,33.868-18.582c6.188-9.699,15.459-17.06,26.187-21.215
	C248.706,370.831,259.535,358.267,259.535,343.752z"/>
<circle style="fill:#FFB954;" cx="173.824" cy="336.969" r="37.154"/>
<circle style="fill:#FEA02C;" cx="382.913" cy="106.014" r="49.825"/>
<circle style="fill:#FFC66C;" cx="416.748" cy="117.182" r="49.825"/>
<path style="fill:#EDF2FA;" d="M153.408,36.982L153.408,36.982c0,7.731-6.267,13.998-13.998,13.998H24.002
	c-7.731,0-13.998-6.267-13.998-13.998l0,0c0-7.731,6.267-13.998,13.998-13.998H139.41C147.141,22.985,153.408,29.252,153.408,36.982
	z"/>
<path d="M173.979,200.048C97.897,200.048,36,261.946,36,338.027c0,76.083,61.897,137.979,137.979,137.979
	s137.979-61.897,137.979-137.979S250.062,200.048,173.979,200.048z M173.979,456.008c-65.055,0-117.982-52.927-117.982-117.982
	s52.927-117.982,117.982-117.982s117.982,52.926,117.982,117.982S239.034,456.008,173.979,456.008z"/>
<path d="M306.844,241.367c-4.652,2.976-6.012,9.159-3.036,13.811c38.6,60.354,29.791,140.987-20.951,191.727
	c-29.083,29.083-67.75,45.098-108.879,45.098s-79.796-16.016-108.879-45.098c-60.036-60.035-60.036-157.72,0-217.756
	c51.628-51.627,133.176-59.841,193.904-19.533c4.6,3.055,10.805,1.801,13.86-2.801c3.054-4.601,1.8-10.806-2.802-13.86
	c-32.967-21.883-72.934-31.871-112.553-28.125c-40.146,3.796-77.986,21.617-106.549,50.179c-67.832,67.833-67.832,178.203,0,246.036
	c32.859,32.859,76.548,50.955,123.018,50.955s90.159-18.096,123.018-50.955c28.2-28.201,45.972-65.541,50.039-105.141
	c4.01-39.032-5.359-78.631-26.384-111.501C317.678,239.751,311.494,238.389,306.844,241.367z"/>
<path d="M282.905,229.198c1.954,1.961,4.519,2.942,7.084,2.942c2.553,0,5.105-0.971,7.057-2.915
	c3.911-3.897,3.924-10.227,0.027-14.141l-0.126-0.126c-3.896-3.911-10.227-3.923-14.141-0.027
	c-3.911,3.897-3.924,10.227-0.027,14.141L282.905,229.198z"/>
<path d="M509.067,494.855l-14.47-14.469c10.844-13.879,17.33-31.318,17.33-50.255c0-45.101-36.692-81.795-81.794-81.795
	s-81.795,36.692-81.795,81.795c0,45.1,36.692,81.794,81.795,81.794c18.971,0,36.44-6.51,50.329-17.389l14.462,14.461
	c1.953,1.952,4.511,2.929,7.07,2.929s5.118-0.977,7.07-2.929C512.972,505.09,512.972,498.759,509.067,494.855z M368.337,430.129
	c0-34.075,27.723-61.798,61.798-61.798s61.797,27.723,61.797,61.798s-27.722,61.797-61.797,61.797S368.337,464.204,368.337,430.129z
	"/>
<path d="M397.945,227.966c62.85,0,113.983-51.132,113.983-113.983S460.795,0,397.945,0S283.963,51.132,283.963,113.983
	S335.095,227.966,397.945,227.966z M397.945,19.997c51.824,0,93.986,42.162,93.986,93.986s-42.162,93.986-93.986,93.986
	s-93.986-42.162-93.986-93.986S346.121,19.997,397.945,19.997z"/>
<path d="M381.936,165.791c9.814,7.048,21.83,11.214,34.807,11.214c32.986,0,59.823-26.836,59.823-59.823
	c0-32.338-25.796-58.747-57.888-59.774c-10.115-7.249-22.346-11.215-34.843-11.215c-32.986,0-59.823,26.836-59.823,59.823
	C324.011,138.366,349.827,164.782,381.936,165.791z M456.569,117.182c0,21.96-17.865,39.826-39.826,39.826
	c-21.961,0-39.826-17.865-39.826-39.826c0-21.49,17.111-39.048,38.424-39.79c0.017,0,0.034-0.001,0.05-0.001
	c0.45-0.015,0.898-0.034,1.352-0.034C438.702,77.356,456.569,95.223,456.569,117.182z M383.834,66.19
	c0.54,0,1.078,0.013,1.613,0.034c-17.101,10.54-28.528,29.438-28.528,50.958c0,7.517,1.407,14.707,3.949,21.34
	c-10.19-7.22-16.86-19.095-16.86-32.507C344.008,84.055,361.874,66.19,383.834,66.19z"/>
<path d="M432.74,127.181c2.63,0,5.209-1.07,7.069-2.93c1.859-1.86,2.93-4.439,2.93-7.069s-1.07-5.209-2.93-7.069
	c-1.86-1.86-4.439-2.93-7.069-2.93c-2.63,0-5.209,1.07-7.069,2.93c-1.859,1.86-2.93,4.439-2.93,7.069s1.07,5.209,2.93,7.069
	C427.531,126.111,430.111,127.181,432.74,127.181z"/>
<path d="M226.37,284.542c-9.274-21.306-30.276-35.073-53.507-35.073c-23.517,0-44.624,14.002-53.77,35.673
	c-3.702,8.773-9.982,16.082-18.162,21.136c-14.501,8.96-22.817,22.619-22.817,37.475c0,17.936,12.245,34.068,31.956,42.098
	c8.175,3.328,15.241,9.413,20.436,17.593c9.262,14.587,25.096,23.294,42.357,23.294c17.215,0,33.027-8.674,42.298-23.203
	c4.914-7.704,12.503-13.837,21.368-17.268c20.358-7.882,33.005-24.172,33.005-42.515c0-15.316-9.173-29.708-24.537-38.497
	C236.744,300.535,230.13,293.179,226.37,284.542z M229.31,367.62c-12.807,4.958-23.818,13.894-31.007,25.16
	c-5.577,8.743-15.088,13.962-25.438,13.962c-10.379,0-19.903-5.239-25.476-14.017c-7.435-11.708-17.729-20.489-29.773-25.393
	c-12.029-4.9-19.503-13.936-19.503-23.578c0-7.77,4.859-15.229,13.332-20.465c11.731-7.249,20.748-17.751,26.073-30.371
	c6.013-14.246,19.888-23.451,35.348-23.451c15.269,0,29.075,9.051,35.172,23.058c5.466,12.558,15.066,23.244,27.031,30.089
	c9.196,5.261,14.471,12.967,14.471,21.141C249.537,353.643,241.786,362.788,229.31,367.62z"/>
<path d="M173.823,289.815c-25.999,0-47.151,21.152-47.151,47.151c0,26,21.152,47.152,47.151,47.152
	c26,0,47.152-21.152,47.152-47.152C220.976,310.968,199.823,289.815,173.823,289.815z M173.823,364.122
	c-14.973,0-27.154-12.182-27.154-27.155c0-14.973,12.182-27.154,27.154-27.154c14.974,0,27.155,12.181,27.155,27.154
	C200.978,351.94,188.797,364.122,173.823,364.122z"/>
<path d="M24.002,60.979H139.41c9.665,0,18.006-5.746,21.806-13.998h16.154c4.373,15.548,18.67,26.984,35.599,26.984h43
	c5.521,0,9.999-4.476,9.999-9.998s-4.477-9.998-9.999-9.998h-43c-5.626,0-10.607-2.761-13.7-6.987h56.636
	c5.521,0,9.998-4.476,9.998-9.998s-4.477-9.998-9.998-9.998h-56.636c3.092-4.226,8.073-6.987,13.699-6.987h43
	c5.521,0,9.999-4.476,9.999-9.998S261.488,0,255.967,0h-43c-16.927,0-31.224,11.435-35.599,26.984h-16.154
	c-3.798-8.252-12.141-13.998-21.806-13.998H24.002c-13.231,0-23.996,10.765-23.996,23.996S10.77,60.979,24.002,60.979z
	 M24.002,32.983H139.41c2.206,0,3.999,1.794,3.999,3.999s-1.794,3.999-3.999,3.999H24.002c-2.206,0-3.999-1.794-3.999-3.999
	S21.796,32.983,24.002,32.983z"/>
<path d="M24.002,135.98h107.93c0.927,4.563,4.961,7.999,9.798,7.999h46.73c30.505,0,58.889-15.106,75.928-40.409
	c2.064-3.066,2.27-7.02,0.533-10.282c-1.737-3.263-5.131-5.301-8.827-5.301H24.002c-13.231,0-23.996,10.765-23.996,23.996
	S10.77,135.98,24.002,135.98z M151.728,107.984h81.838c-12.583,10.227-28.441,15.998-45.106,15.998h-36.731V107.984z
	 M24.002,107.984h107.729v7.999H24.002c-2.206,0-3.999-1.794-3.999-3.999C20.002,109.777,21.796,107.984,24.002,107.984z"/>
<path d="M457.714,405.075c2.945-4.67,1.546-10.845-3.126-13.79c-7.316-4.613-15.772-7.052-24.453-7.052
	c-25.308,0-45.896,20.589-45.896,45.896c0,5.521,4.477,9.999,9.998,9.999c5.521,0,9.999-4.477,9.999-9.999
	c0-14.281,11.618-25.899,25.899-25.899c4.901,0,9.67,1.373,13.789,3.97C448.591,411.145,454.768,409.747,457.714,405.075z"/>
<path d="M476.026,429.405c-0.085-5.469-4.544-9.845-9.995-9.845c-0.052,0-0.104,0-0.157,0.001
	c-5.521,0.086-9.928,4.631-9.844,10.151l0.003,0.416c0,5.521,4.477,9.999,9.998,9.999c5.521,0,9.999-4.477,9.999-9.999
	C476.03,429.887,476.029,429.645,476.026,429.405z"/>
<g>
</g>
<g>
</g>
<g>
</g>
<g>
</g>
<g>
</g>
<g>
</g>
<g>
</g>
<g>
</g>
<g>
</g>
<g>
</g>
<g>
</g>
<g>
</g>
<g>
</g>
<g>
</g>
<g>
</g>
</svg>
