<?xml version="1.0" encoding="iso-8859-1"?>
<!-- Generator: Adobe Illustrator 19.0.0, SVG Export Plug-In . SVG Version: 6.00 Build 0)  -->
<svg version="1.1" id="Layer_1" xmlns="http://www.w3.org/2000/svg" xmlns:xlink="http://www.w3.org/1999/xlink" x="0px" y="0px"
	 viewBox="0 0 512 512" style="enable-background:new 0 0 512 512;" xml:space="preserve">
<path style="fill:#D9D3CC;" d="M411.826,311.652V512h-55.652H155.826h-55.652V311.652l111.304-44.522h89.043L411.826,311.652z"/>
<path style="fill:#A6A199;" d="M373.881,296.474l-17.707,70.831V512H155.826l0,0V367.304l-17.707-70.83l73.36-29.344h11.13h66.783
	h11.13L373.881,296.474z"/>
<path style="fill:#5D5A51;" d="M217.043,422.957c0,6.147-4.983,11.13-11.13,11.13c-6.147,0-11.13-4.983-11.13-11.13
	c0-6.147,4.983-11.13,11.13-11.13C212.06,411.826,217.043,416.809,217.043,422.957z M205.913,456.348
	c-6.147,0-11.13,4.983-11.13,11.13s4.983,11.13,11.13,11.13c6.147,0,11.13-4.983,11.13-11.13S212.06,456.348,205.913,456.348z
	 M306.087,434.087c6.147,0,11.13-4.983,11.13-11.13c0-6.147-4.983-11.13-11.13-11.13s-11.13,4.983-11.13,11.13
	C294.957,429.104,299.94,434.087,306.087,434.087z M306.087,456.348c-6.147,0-11.13,4.983-11.13,11.13s4.983,11.13,11.13,11.13
	s11.13-4.983,11.13-11.13S312.234,456.348,306.087,456.348z"/>
<path style="fill:#B39D7F;" d="M289.391,278.261h-66.783v-44.522h66.783V278.261z"/>
<path style="fill:#DFCBA8;" d="M279.302,244.87h-46.603c-15.651,0-29.201-10.87-32.597-26.148l-4.378-19.7
	c-8.024-36.109-12.072-72.989-12.072-109.979l0,0h144.696l0,0c0,36.99-4.048,73.869-12.072,109.979l-4.378,19.7
	C308.502,234,294.952,244.87,279.302,244.87z"/>
<path style="fill:#B74941;" d="M300.522,267.13c0,12.295-9.966,22.261-22.261,22.261v41.894c0,15.253-8.618,29.197-22.261,36.019
	v-22.261c-13.643-6.822-22.261-20.766-22.261-36.019v-19.633c-12.295,0-22.261-9.966-22.261-22.261h22.261H256H300.522z"/>
<path style="fill:#612324;" d="M300.522,267.13c0,12.295-9.966,22.261-22.261,22.261v41.894c0,15.253-8.618,29.197-22.261,36.019
	v-22.261V267.13H300.522z"/>
<path style="fill:#A6A199;" d="M178.087,128V5.565c0-3.073,2.492-5.565,5.565-5.565h144.696c3.073,0,5.565,2.492,5.565,5.565V128
	c0,3.073-2.492,5.565-5.565,5.565H183.652C180.579,133.565,178.087,131.073,178.087,128z"/>
<path style="fill:#D9D3CC;" d="M345.043,44.522H166.957c-12.295,0-22.261-9.966-22.261-22.261l0,0
	C144.696,9.966,154.662,0,166.957,0h178.087c12.295,0,22.261,9.966,22.261,22.261l0,0C367.304,34.556,357.338,44.522,345.043,44.522
	z"/>
<g>
</g>
<g>
</g>
<g>
</g>
<g>
</g>
<g>
</g>
<g>
</g>
<g>
</g>
<g>
</g>
<g>
</g>
<g>
</g>
<g>
</g>
<g>
</g>
<g>
</g>
<g>
</g>
<g>
</g>
</svg>
