<?xml version="1.0" encoding="iso-8859-1"?>
<!-- Generator: Adobe Illustrator 19.0.0, SVG Export Plug-In . SVG Version: 6.00 Build 0)  -->
<svg version="1.1" id="Layer_1" xmlns="http://www.w3.org/2000/svg" xmlns:xlink="http://www.w3.org/1999/xlink" x="0px" y="0px"
	 viewBox="0 0 512 512" style="enable-background:new 0 0 512 512;" xml:space="preserve">
<path style="fill:#D4EBE9;" d="M350.565,284.58c-18.696-21.101-50.209-72.373-54.379-180.564h-80.371
	c-4.169,108.169-35.673,159.445-54.379,180.565c-6.716,6.044-10.562,14.66-10.562,23.713v171.805
	c0,17.618,14.283,31.901,31.899,31.901h146.455c17.616,0,31.899-14.282,31.899-31.901V308.294
	C361.127,299.241,357.28,290.624,350.565,284.58z"/>
<path style="fill:#F96300;" d="M350.565,284.58c-12.798-14.445-31.602-43.032-43.531-94.331H204.967
	c-11.926,51.287-30.726,79.876-43.53,94.332c-6.716,6.044-10.562,14.66-10.562,23.713v171.805c0,17.618,14.283,31.901,31.899,31.901
	h146.455c17.616,0,31.899-14.282,31.899-31.901V308.294C361.127,299.241,357.28,290.624,350.565,284.58z"/>
<path style="fill:#FFEA33;" d="M150.874,312.623V454.58h86.414c8.812,0,15.952-7.142,15.952-15.95V328.573
	c0-8.81-7.141-15.95-15.952-15.95L150.874,312.623L150.874,312.623z"/>
<path style="opacity:0.1;enable-background:new    ;" d="M195.638,480.099V308.294c0-9.053,3.846-17.669,10.562-23.713
	c12.804-14.456,31.604-43.046,43.53-94.332h-44.764c-11.926,51.287-30.726,79.876-43.53,94.332
	c-6.716,6.044-10.562,14.66-10.562,23.713v171.805c0,17.618,14.283,31.901,31.899,31.901h44.764
	C209.921,512,195.638,497.718,195.638,480.099z"/>
<path style="fill:#FFEA33;" d="M361.127,454.58V312.623h-22.313c-8.811,0-15.951,7.141-15.951,15.95v110.056
	c0,8.808,7.141,15.95,15.951,15.95L361.127,454.58L361.127,454.58z"/>
<g>
	<path style="fill:#E23B3B;" d="M203.762,371.874h-26.365c-4.465,0-8.084-3.62-8.084-8.083c0-4.465,3.62-8.084,8.084-8.084h26.365
		c4.465,0,8.083,3.62,8.083,8.084C211.845,368.254,208.227,371.874,203.762,371.874z"/>
	<path style="fill:#E23B3B;" d="M203.762,407.647h-26.365c-4.465,0-8.084-3.62-8.084-8.084c0-4.465,3.62-8.084,8.084-8.084h26.365
		c4.465,0,8.083,3.62,8.083,8.084C211.845,404.029,208.227,407.647,203.762,407.647z"/>
	<path style="fill:#E23B3B;" d="M361.127,480.099v-6.904h-46.92c-4.465,0-8.083,3.62-8.083,8.084c0,4.465,3.618,8.084,8.083,8.084
		h45.549C360.644,486.431,361.127,483.322,361.127,480.099z"/>
	<path style="fill:#E23B3B;" d="M291.571,489.364h-18.324c-4.465,0-8.083-3.62-8.083-8.084c0-4.465,3.618-8.084,8.083-8.084h18.324
		c4.465,0,8.084,3.62,8.084,8.084C299.655,485.745,296.036,489.364,291.571,489.364z"/>
</g>
<path style="fill:#FFCF33;" d="M315.014,90.916c0,9.69-7.856,17.545-17.545,17.545h-82.941c-9.69,0-17.546-7.856-17.546-17.545l0,0
	c0-9.69,7.856-17.546,17.546-17.546h82.941C307.159,73.371,315.014,81.225,315.014,90.916L315.014,90.916z"/>
<path style="opacity:0.1;enable-background:new    ;" d="M230.668,90.916c0-9.69,7.856-17.546,17.545-17.546H214.53
	c-9.69,0-17.546,7.856-17.546,17.546s7.856,17.545,17.546,17.545h33.683C238.522,108.461,230.668,100.606,230.668,90.916z"/>
<path style="fill:#FFEA33;" d="M211.163,73.371c-7.503,0-13.588-6.083-13.588-13.587V27.175C197.575,12.191,209.765,0,224.75,0
	h62.502c14.983,0,27.175,12.191,27.175,27.175v32.609c0,7.503-6.084,13.587-13.588,13.587H211.163z"/>
<path style="opacity:0.1;enable-background:new    ;" d="M231.208,59.784V27.175C231.208,12.191,243.398,0,258.384,0H224.75
	c-14.985,0-27.175,12.191-27.175,27.175v32.609c0,7.503,6.084,13.587,13.588,13.587h33.633
	C237.294,73.371,231.208,67.287,231.208,59.784z"/>
<g>
	<path style="fill:#FFFFFF;" d="M282.447,199.973c-5.269,12.724-9.543,16.996-22.267,22.268
		c12.724,5.269,16.997,9.543,22.267,22.267c5.27-12.724,9.543-16.997,22.267-22.267
		C291.989,216.968,287.716,212.696,282.447,199.973z"/>
	<circle style="fill:#FFFFFF;" cx="307.201" cy="258.09" r="9.823"/>
</g>
<g>
</g>
<g>
</g>
<g>
</g>
<g>
</g>
<g>
</g>
<g>
</g>
<g>
</g>
<g>
</g>
<g>
</g>
<g>
</g>
<g>
</g>
<g>
</g>
<g>
</g>
<g>
</g>
<g>
</g>
</svg>
