<?xml version="1.0" encoding="iso-8859-1"?>
<!-- Generator: Adobe Illustrator 18.0.0, SVG Export Plug-In . SVG Version: 6.00 Build 0)  -->
<!DOCTYPE svg PUBLIC "-//W3C//DTD SVG 1.1//EN" "http://www.w3.org/Graphics/SVG/1.1/DTD/svg11.dtd">
<svg version="1.1" id="Capa_1" xmlns="http://www.w3.org/2000/svg" xmlns:xlink="http://www.w3.org/1999/xlink" x="0px" y="0px"
	 viewBox="0 0 54 54" style="enable-background:new 0 0 54 54;" xml:space="preserve">
<g>
	<path style="fill:#E6E6E6;" d="M27.725,13.814c-0.256,0-0.512-0.098-0.707-0.293c-2.019-2.019-2.019-5.303,0-7.321
		c0.391-0.391,1.023-0.391,1.414,0s0.391,1.023,0,1.414c-1.239,1.239-1.239,3.254,0,4.493c0.391,0.391,0.391,1.023,0,1.414
		C28.236,13.717,27.98,13.814,27.725,13.814z"/>
	<path style="fill:#E6E6E6;" d="M27.725,7.907c-0.256,0-0.512-0.098-0.707-0.293c-0.391-0.391-0.391-1.023,0-1.414
		c1.238-1.238,1.238-3.255,0-4.493c-0.391-0.391-0.391-1.023,0-1.414s1.023-0.391,1.414,0c2.018,2.019,2.018,5.303,0,7.321
		C28.236,7.81,27.98,7.907,27.725,7.907z"/>
	<path style="fill:#E6E6E6;" d="M20.225,13.814c-0.256,0-0.512-0.098-0.707-0.293c-0.656-0.655-1.018-1.527-1.018-2.454
		c0-0.928,0.361-1.8,1.018-2.455c0.391-0.391,1.024-0.391,1.415,0c0.39,0.391,0.39,1.023,0,1.414
		c-0.278,0.278-0.432,0.647-0.432,1.041c0,0.393,0.153,0.762,0.432,1.04c0.391,0.391,0.391,1.023,0,1.414
		C20.737,13.717,20.48,13.814,20.225,13.814z"/>
	<path style="fill:#E6E6E6;" d="M20.225,10.319c-0.256,0-0.512-0.098-0.707-0.293c-0.391-0.391-0.391-1.023,0-1.414
		c0.574-0.574,0.574-1.507,0-2.081c-0.391-0.391-0.391-1.023,0-1.414s1.023-0.391,1.414,0c1.354,1.354,1.354,3.556,0,4.909
		C20.736,10.222,20.48,10.319,20.225,10.319z"/>
	<path style="fill:#E6E6E6;" d="M35.225,13.814c-0.256,0-0.512-0.098-0.707-0.293c-0.656-0.655-1.018-1.527-1.018-2.454
		c0-0.928,0.361-1.8,1.018-2.455c0.391-0.391,1.024-0.391,1.415,0c0.39,0.391,0.39,1.023,0,1.414
		c-0.278,0.278-0.432,0.647-0.432,1.041c0,0.393,0.153,0.762,0.432,1.04c0.391,0.391,0.391,1.023,0,1.414
		C35.737,13.717,35.48,13.814,35.225,13.814z"/>
	<path style="fill:#E6E6E6;" d="M35.225,10.319c-0.256,0-0.512-0.098-0.707-0.293c-0.391-0.391-0.391-1.023,0-1.414
		c0.574-0.574,0.574-1.507,0-2.081c-0.391-0.391-0.391-1.023,0-1.414s1.023-0.391,1.414,0c1.354,1.354,1.354,3.556,0,4.909
		C35.736,10.222,35.48,10.319,35.225,10.319z"/>
	<path style="fill:#E6E6E6;" d="M25.413,47h1.654c3.99,0,7.755-1.896,10.116-5.112C46.788,28.805,42.934,18,41.626,18H25.413h3.333
		H12.533c-1.308,0-5.162,10.805,4.443,23.888C19.337,45.104,23.102,47,27.092,47h1.654"/>
	<path style="fill:#E6E6E6;" d="M38.865,40.077c-0.396,0-0.774-0.03-1.129-0.092l0.339-1.971c2.346,0.401,7.074-1.16,8.147-5.71
		c0.41-1.736,0.366-2.994-0.129-3.736c-0.62-0.931-2.016-1.16-3.494-1.402l-0.495-0.083l0.339-1.971l0.48,0.08
		c1.749,0.287,3.731,0.613,4.833,2.266c0.827,1.24,0.961,2.976,0.412,5.306C46.989,37.765,42.295,40.077,38.865,40.077z"/>
	<path style="fill:#FFFFFF;" d="M17.501,30c-0.309,0-0.613-0.143-0.809-0.41c-1.383-1.896-1.932-4.307-1.505-6.614
		c0.101-0.543,0.619-0.905,1.166-0.802c0.543,0.101,0.902,0.622,0.801,1.165c-0.323,1.744,0.108,3.64,1.153,5.071
		c0.326,0.446,0.228,1.072-0.218,1.397C17.912,29.938,17.705,30,17.501,30z"/>
	<path style="fill:#D2D5D7;" d="M39.653,41.104c-0.655-0.119-1.312-0.101-1.941,0.034c-0.175,0.249-0.345,0.498-0.529,0.749
		c-2.359,3.213-6.118,5.108-10.104,5.112c0.004,0,0.008,0.001,0.013,0.001h-0.025c0.004,0,0.008-0.001,0.013-0.001
		c-3.986-0.004-7.745-1.899-10.104-5.112c-0.19-0.259-0.366-0.515-0.545-0.772c-0.627-0.135-1.281-0.155-1.934-0.038
		C8.469,42.154,4.5,43.986,4.5,46.065C4.5,49.379,14.574,54,27,54s22.5-4.621,22.5-7.935C49.5,44.003,45.597,42.184,39.653,41.104z"
		/>
</g>
<g>
</g>
<g>
</g>
<g>
</g>
<g>
</g>
<g>
</g>
<g>
</g>
<g>
</g>
<g>
</g>
<g>
</g>
<g>
</g>
<g>
</g>
<g>
</g>
<g>
</g>
<g>
</g>
<g>
</g>
</svg>
