<?xml version="1.0" encoding="iso-8859-1"?>
<!-- Generator: Adobe Illustrator 19.0.0, SVG Export Plug-In . SVG Version: 6.00 Build 0)  -->
<svg version="1.1" id="Capa_1" xmlns="http://www.w3.org/2000/svg" xmlns:xlink="http://www.w3.org/1999/xlink" x="0px" y="0px"
	 viewBox="0 0 511.999 511.999" style="enable-background:new 0 0 511.999 511.999;" xml:space="preserve">
<g>
	<path style="fill:#636260;" d="M108.03,261.621c-13.374-1.79-20.055,11.945-21.801,22.777c-2.119,13.148-2.075,26.906-3.333,40.196
		c-2.393,25.296-4.998,50.025-4.955,75.545c0.04,23.997,0.445,47.944,0.448,71.948c0.002,13.593,0.483,24.484,14.296,30.146
		c12.306,5.044,28.822,5.409,41.868,3.235c16.794-2.798,18.32-17.333,17.458-32.757c-0.596-10.657,0.065-21.649-0.835-32.267
		c-0.807-9.507-2.308-18.746-2.312-28.372c-0.007-20.165,2.024-40.3,0.356-60.5c-2.003-24.259-1.877-48.75-6.039-72.792
		c-1.158-6.687-1.961-12.786-8.734-15.82C129.45,260.72,116.372,258.945,108.03,261.621z"/>
	<path style="fill:#636260;" d="M244.105,261.621c-12.184,0.155-22.938,11.169-23.923,22.528
		c-1.251,14.418-1.86,28.789-2.676,43.235c-0.688,12.196-2.812,24.08-3.057,36.353c-0.234,11.663-0.018,23.363,0.012,35.03
		c0.062,23.798-0.221,47.681,0,71.473c0.071,7.599-0.126,18.634,4.521,25.175c3.571,5.027,12.844,8.553,18.79,9.997
		c12.558,3.05,30.321,0.909,41.071-6.679c11.823-8.345,8.352-23.893,6.492-36.232c-5.695-37.787-3.007-77.327-1.298-115.408
		c1.001-22.304-2.099-44.175-5.913-66.072c-1.165-6.689-3.347-13.758-8.939-18.053C262.762,258.036,254.688,259.772,244.105,261.621
		z"/>
	<path style="fill:#636260;" d="M373.445,256.231c-9.544-0.62-17.739,9.57-20.737,17.677c-4.531,12.25-2.602,28.217-3.591,41.244
		c-2.07,27.256-2.297,54.586-1.248,81.898c0.728,18.929-0.023,38.05-0.023,56.998c0,15.125-2.283,38.058,15.54,44.435
		c12.16,4.351,29.694,5.643,41.46-0.152c13.582-6.689,16.187-19.111,14.965-33.277c-0.704-8.159-1.409-16.227-1.458-24.433
		c-0.074-12.267-2.864-24.081-2.345-36.368c0.869-20.566,1.263-41.866-0.336-62.357c-1.75-22.427,0.045-46.612-6.167-68.504
		c-1.723-6.072-5.633-13.365-11.186-16.527C391.936,253.229,382.818,254.884,373.445,256.231z"/>
</g>
<g>
	<path style="fill:#4D4B49;" d="M110.725,259.824c-7.631,28.139-10.342,56.555-8.302,85.517c2.052,29.137,7.697,57.999,9.886,87.196
		c1.429,19.062,1.513,38.319,2.025,57.409c0.145,5.392,0.392,12.988-7.047,12.366c-6.148-0.514-17.012-5.626-21.463-9.395
		c-4.707-3.985-4.622-9.959-4.77-15.779c-0.294-11.596,1.243-23.084,0.961-34.639c-0.465-19.044-1.905-38.093-2.298-57.116
		c-0.404-19.601,3.236-38.855,3.625-58.385c0.188-9.479,0.948-18.905,1.413-28.367c0.386-7.846,0.142-17.145,2.649-24.65
		C91.108,262.886,102.145,259.032,110.725,259.824z"/>
	<path style="fill:#4D4B49;" d="M249.046,259.824c-4.473,11.574-5.421,26.127-6.758,38.502c-1.349,12.488-1.79,25.228-1.773,37.781
		c0.048,35.94,1.891,72.237,5.254,108.04c0.983,10.463,2.56,20.773,4.997,30.959c1.538,6.427,3.052,13.801,3.19,20.444
		c0.128,6.144-2.629,9.309-8.822,9.04c-7.918-0.345-21.389-3.978-27.117-9.986c-9.751-10.229-0.75-32.595-1.408-45.137
		c-2.155-41.085-4.858-81.546-2.125-122.692c0.809-12.187,3.06-23.407,6.412-35.131c1.736-6.072,1.927-12.633,5.263-18.111
		c2.201-3.614,5.344-6.902,8.687-9.509C238.762,260.968,242.245,261.375,249.046,259.824z"/>
	<path style="fill:#4D4B49;" d="M380.182,258.028c-3.721,7.542-2.401,17.924-2.756,26.215c-0.406,9.485-0.169,18.708,0.479,28.179
		c1.536,22.459,2.247,44.881,3.866,67.333c2.321,32.19,1.583,64.365,3.734,96.544c0.586,8.777,3.38,25.599-9.213,25.628
		c-4.639,0.011-9.332-1.756-13.196-4.17c-2.967-1.853-8.403-4.033-10.628-6.592c-6.747-7.759-5.175-24.174-5.078-33.505
		c0.152-14.719,0.337-29.453,0.447-44.187c0.116-15.477,1.96-30.984,2.685-46.426c0.804-17.14-0.567-34.407,0.595-51.497
		c0.916-13.467,0.608-27.458,4.695-40.525C359.565,263.019,367.936,259.525,380.182,258.028z"/>
</g>
<g>
	<path style="fill:#FFC94E;" d="M144.855,452.486c-12.721-3.743-28.28-0.37-41.265,0.432c-6.48,0.4-13.105-0.568-19.57,0
		c-6.517,0.573-8.85,4.495-9.18,11.124c-0.422,8.511-0.443,12.114,8.035,12.693c17.851,1.22,35.909,0.813,53.771,0.921
		c3.26,0.02,9.931-0.045,12.192-2.841C152.169,470.7,150.94,457.603,144.855,452.486z"/>
	<path style="fill:#FFC94E;" d="M280.482,450.241c-19.511-0.188-40.251-4.119-59.639-0.1c-6.049,1.254-6.181,4.218-6.736,10.801
		c-0.377,4.463-1.263,11.424,2.599,14.469c3.306,2.606,9.814,1.646,13.623,1.876c7.146,0.432,14.187,0.813,21.361,0.798
		c8.295-0.018,16.613,0.86,24.91,0.448c6.629-0.329,9.1-1.894,9.758-8.831C286.962,463.334,285.225,456.594,280.482,450.241z"/>
	<path style="fill:#FFC94E;" d="M409.822,449.792c-13.704-3.167-29.596-1.795-43.602-1.796c-3.593,0-15.797-2.129-19.226,0.062
		c-3.304,2.112-4.224,14.766-3.218,18.325c1.616,5.721,6.855,6.263,12.318,6.312c10.78,0.098,21.505-0.005,32.3,0.001
		c6.41,0.003,15.184,1.611,21.446,0.004C416.452,471.003,418.363,455.815,409.822,449.792z"/>
</g>
<g>
	<path style="fill:#F49D34;" d="M109.826,454.731c3.729,2.312,2.97,11.61,3.254,15.492c0.359,4.903,1.378,4.99-2.837,6.085
		c-4.397,1.142-10.787-0.895-15.304-0.897c-4.076-0.002-8.445,1.067-12.544,0.432c-2.661-0.413-3.032-0.283-4.342-2.399
		c-1.423-2.3-2.021-15.58-0.113-17.941c1.686-2.084,5.411-1.161,7.808-1.258C93.672,453.923,101.447,454.279,109.826,454.731z"/>
	<path style="fill:#F49D34;" d="M249.944,453.833c0.479,5.995,4.774,19.067-4.124,20.578c-4.647,0.789-10.325-0.565-15.17-0.161
		c-4.541,0.378-10.27,2.01-14.764,1.487c-3.455-0.402-2.713,0.619-4.026-2.834c-1.563-4.115-0.842-12.992,0.996-17.312
		c1.867-4.388,3.79-4.274,8.971-4.476C231.499,450.739,241.215,451.564,249.944,453.833z"/>
	<path style="fill:#F49D34;" d="M381.529,446.648c2.545,7.442,1.546,15.65,1.37,23.348c-8.131,4.066-17.169,1.888-25.998,1.33
		c-3.881-0.245-10.316,1.44-12.907-2.625c-3.11-4.878-0.103-15.254,4.274-18.941c3.939-3.319,9.674-2.931,14.402-3.098
		C369.895,446.407,377.062,445.505,381.529,446.648z"/>
</g>
<g>
	<path style="fill:#DADBDC;" d="M125.544,6.085C96.007,27.057,98.781,67.205,91.67,99.204c-6.158,27.709-9.771,55.935-12.606,84.214
		c-1.298,12.945-5.619,28.24,8.27,35.762c5.288,2.864,8.648,3.106,9.951,9.784c1.528,7.838-1.296,15.83-0.954,23.734
		c0.384,8.861,5.801,6.893,13.366,7.227c7.409,0.326,16.168,2.075,23.444,0.467c1.007-26.247-2.521-51.875-1.734-78.117
		c0.386-12.872,0.298-25.263,1.784-38.092c1.467-12.665,3.11-25.549,3.68-38.288c1.015-22.691,2.085-45.818,1.272-68.553
		c-0.187-5.208-0.337-9.828,0.1-15.052c0.253-3.028,1.941-7.782,1.267-10.657C138.593,7.726,132.878,5.058,125.544,6.085z"/>
	<path style="fill:#DADBDC;" d="M198.747,33.929c-4.811,23.751-8.272,47.508-7.084,71.833c0.424,8.679,1.13,17.289,5.179,24.957
		c4.82,9.128,12.87,15.411,20.778,21.929c10.552,8.696,19.055,14.456,18.499,29.305c-0.857,22.878-0.685,46.266-2.804,69.035
		c-0.243,2.613-1.177,5.774,0.521,7.612c2.443,2.646,9.8,0.96,12.978,0.775c7.039-0.41,14.088-0.782,21.037-1.342
		c1.183-16.268-4.025-32.72-4.858-48.878c-0.586-11.378-2.873-24.07,0.861-35.117c3.426-10.136,11.978-12.961,20.796-17.497
		c7.715-3.968,10.942-9.144,12.889-17.278c1.447-6.044,1.965-12.546,1.829-18.802c-0.177-8.109,0.511-16.313,0.351-24.472
		c-0.258-13.099-3.017-25.442-4.076-38.415c-0.579-7.093,1.361-19.271-3.46-25.343c-3.3-4.156-12.28-8.378-16.319-3.948
		c-3.873,4.249-1.203,12.943-1.217,18.176c-0.021,7.968,0.377,15.88,0.448,23.824c0.101,11.404,1.452,24.822-1.223,35.962
		c-1.128,4.698-3.446,9.755-8.902,6.383c-8.09-5.001-3.545-28.273-3.247-36.033c0.462-11.991,2.896-49.194-18.5-45.708
		c-10.256,1.671-8.518,20.028-8.544,27.981c-0.047,14.328,0.038,29.867-2.212,44.029c-1.202,7.563-5.925,17.442-14.755,13.425
		c-5.036-2.291-5.115-7.231-5.061-12.243c0.091-8.43,0.166-17.425,1.806-25.71c2.46-12.426,6.434-25.871,4.501-38.603
		c-0.66-4.342-2.324-8.896-6.755-10.45C208.471,28.009,201.984,29.833,198.747,33.929z"/>
	<path style="fill:#DADBDC;" d="M369.853,24.049c-7.46,1.375-12.813,11.164-16.145,17.146c-5.082,9.124-9.449,17.78-13.371,27.445
		c-5.577,13.74-9.272,26.51-11.543,41.215c-2.064,13.369-0.191,23.966,4.231,36.381c3.195,8.97,5.986,19.633,11.243,27.461
		c7.159,10.661,19.22,19.45,21.881,32.35c2.028,9.83,1.289,20.41,1.043,30.362c-0.164,6.654-0.977,15.011,5.326,18.475
		c3.257,1.79,14.813,3.353,18.318,0.841c2.972-2.129,1.861-6.057,2.018-9.221c0.373-7.509-0.78-14.792-0.563-22.346
		c0.339-11.836-0.763-26.5,5.307-36.879c4.832-8.262,11.405-15.207,17.009-22.957c11.281-15.601,14.64-31.011,17.998-49.556
		c1.12-6.185,3.794-12.242,4.14-18.585c0.294-5.378-0.934-11.581-2.101-16.892c-1.724-7.844-5.759-14.398-8.305-22.019
		c-2.684-8.032-7.966-14.888-13.484-21.194C403.137,24.97,390.006,16.147,369.853,24.049z"/>
</g>
<g>
	<path style="fill:#BCBEC0;" d="M122.85,8.78c-4.129,3.884-5.389,17.743-6.692,22.698c-2.332,8.861-3.91,17.234-5.007,26.29
		c-1.73,14.272-1.424,28.631-0.975,42.972c0.91,29.082-3.761,57.327-4.756,86.296c-0.304,8.863-0.509,17.152,3.916,25.057
		c2.447,4.373,6.299,7.389,7.19,12.481c1.812,10.349-2.181,21.989-2.247,32.487c-3.288,1.6-12.019,4.865-14.364,1.564
		c-1.396-1.965,0.47-8.052,0.667-10.225c0.424-4.659,0.55-9.404,0.844-14.085c0.344-5.478,0.833-10.96-4.163-13.012
		c-5.672-2.331-8.589-2.526-12.179-8.871c-9.661-17.075-3.356-37.719-1.649-56.206c1.438-15.583,4.534-31.667,7.467-47.058
		c2.36-12.385,3.399-25.096,5.194-37.617C99.353,48.828,102.451,27.702,122.85,8.78z"/>
	<path style="fill:#BCBEC0;" d="M217.16,45.157c-2.483,16.246-4.824,34.368-4.972,50.94c-0.048,5.351-0.812,16.102,3.603,20.386
		c2.65,2.572,8.416,3.578,11.923,4.146c6.814,1.105,9.886,2.511,13.348,9.309c9.069,17.807,7.97,42.33,7.98,61.705
		c0.009,15.388-0.446,30.787-0.446,46.19c0,3.954,1.772,13.11-0.866,16.491c-2.519,3.228-13.552,7.338-17.1,6.02
		c0.593-11.943,4.029-23.392,4.055-35.651c0.027-13.207,0.391-26.327,0.449-39.52c0.029-6.667,1.579-16.358-4.067-21.476
		c-2.447-2.218-6.287-3.144-8.988-5.145c-3.397-2.517-6.332-5.531-9.59-8.229c-4.941-4.09-11.158-7.208-14.397-13.061
		c-5.542-10.014-3.972-25.667-4.323-36.728c-0.392-12.386,0.043-24.75,0.882-37.128c0.648-9.561,1.163-19.759,5.68-28.428
		c2.216-4.254,5.435-8.767,11.007-7.355C219.274,29.633,217.891,43.218,217.16,45.157z"/>
	<path style="fill:#BCBEC0;" d="M383.774,23.151c-7.666,1.425-15.206,13.199-16.559,20.044c-0.486,2.457-0.727,7.4,1.085,9.25
		c3.688,3.766,9.156-1.185,12.532-2.777c10.098-4.765,21.481-8.366,26.692,3.916c3.082,7.265,3.166,17.013,3.228,24.775
		c0.098,12.233-0.399,23.716-2.63,35.753c-1.709,9.22-2.768,17.85-8.191,25.796c-4.214,6.174-10.754,9.135-17.022,12.82
		c-10.221,6.01-8.956,17.542-7.567,27.905c1.45,10.816,4.179,21.151,4.425,32.195c0.235,10.605,3.211,26.582-1.228,36.911
		c-2.551,5.936-6.546,4.407-11.257,6.976c2.08-7.097,1.224-15.563,1.224-22.85c0-9.539,1.286-20.146,0.004-29.603
		c-0.529-3.908-1.533-4.527-4.043-7.699c-4.631-5.851-8.613-12.042-13.099-17.949c-12.907-17-20.54-35.658-22.776-57.157
		c-2.277-21.888,5.252-43.226,15.314-62.399c4.37-8.327,9.959-16.165,16.955-22.409c3.23-2.884,6.081-6.05,9.529-8.655
		C375.644,24.025,382.05,22.383,383.774,23.151z"/>
</g>
<path d="M289.783,24.593c-4.594-3.479-10.973-5.658-15.587-0.982c-3.834,3.885-4.225,10.407-4.348,15.542
	c-0.481,20.079,5.643,40.5,1.765,60.485c-0.637,3.281-1.706,6.491-3.329,9.418c-0.012,0.022-0.092,0.143-0.213,0.323
	c-0.106-0.353-0.212-0.699-0.255-1c-0.445-3.078-0.327-6.302-0.4-9.401c-0.255-10.865-0.487-21.736-1.453-32.566
	c-0.93-10.438-2.114-21.451-6.487-31.1c-3.253-7.177-9.655-12.086-17.669-9.029c-14.097,5.378-11.848,24.179-11.997,36.202
	c-0.178,14.344,0.667,30.278-3.943,44.026c-0.798,2.381-2.347,6.469-4.837,7.574c-0.999,0.443-0.026,0.674-0.904-0.554
	c-1.061-1.482-1.474-3.545-1.857-5.283c-2.145-9.712,0.107-20.789,1.284-30.513c1.726-14.264,3.879-29.717,0.315-43.946
	c-1.124-4.488-3.384-9.61-8.23-11.024c-5.887-1.718-11.54,3.131-14.736,7.536c-8.669,11.948-7.568,29.75-8.621,43.759
	c-1.47,19.548-4.195,39.704,3.426,58.43c3.516,8.639,8.932,16.22,16.217,22.074c3.351,2.692,6.899,5.107,10.577,7.329
	c3.635,2.197,8.318,4.006,10.113,8.148c3.671,8.469,0.938,20.403,0.131,29.219c-0.931,10.172-0.628,20.447-0.85,30.655
	c-0.212,9.726-0.332,19.321,0.43,29.01c-10.497,5.916-14.138,17.564-15.925,29.022c-2.456,15.746-1.793,32.63-2.422,48.707
	c-0.613,15.675-1.047,31.356-1.351,47.04c-0.513,26.528-0.416,52.993-1.924,79.475c-0.525,9.209-0.761,19.21,2.522,27.985
	c3.118,8.332,9.14,12.866,17.288,15.761c15.435,5.486,36.56,7.713,51.809,0.603c20.432-9.527,13.266-38.038,12.153-55.752
	c-0.95-15.106,0.224-30.418,0.221-45.549c-0.003-15.366-0.919-30.694-1.831-46.028c-0.96-16.16-2.068-32.313-3.377-48.449
	c-0.957-11.785-1.306-23.865-2.957-35.578c-1.186-8.415-5.038-15.558-12.192-19.147c1.507-8.11,0.676-16.448-0.166-24.634
	c-0.856-8.32-1.398-16.651-2.078-24.986c-0.673-8.263-1.417-16.75-0.342-25.01c0.494-3.792,1.35-7.732,3.131-11.141
	c2.341-4.478,5.712-5.865,10.327-7.423c19.891-6.715,23.524-28.244,23.553-46.776c0.029-18.148-2.162-36.427-3.083-54.565
	C301.06,50.245,300.549,32.746,289.783,24.593z M277.418,494.344c-3.944,4.417-11.533,5.285-17.055,5.607
	c-7.936,0.463-15.96-0.313-23.689-2.147c-5.128-1.217-11.746-2.628-14.929-7.237c-2.007-2.906-3.007-6.473-3.486-10.192
	c11.958,2.078,24.526,0.978,36.622,1.518c7.396,0.331,18.069,1.895,26.339-0.325C281.084,486.513,280.175,491.255,277.418,494.344z
	 M280.274,466.745c0.125,1.436,0.302,3.072,0.471,4.824c-3.597,0.45-7.199,1.176-10.86,1.235
	c-5.742,0.093-11.476-0.274-17.211-0.489c-8.848-0.331-17.734-0.696-26.569,0.087c-2.005,0.178-6.814,1.956-8.147,0.146
	c-0.934-1.268-0.024-3.947,0.017-5.382c0.067-2.354,0.207-4.705,0.37-7.054c0.071-1.021-0.083-2.049,0.074-3.067
	c0.278-1.812,0.847-1.451,2.375-1.206c6.929,1.11,14.113,0.861,21.109,0.765c6.867-0.095,13.59-0.111,20.456,0.352
	c4.643,0.313,11.561,1.251,17.146-0.034C279.729,460.183,279.987,463.451,280.274,466.745z M270.942,278.545
	c1.362,10.238,1.621,20.801,2.462,31.097c1.118,13.678,2.089,27.367,2.948,41.064c1.729,27.592,2.569,55.003,2.342,82.647
	c-0.039,4.779,0.07,9.495,0.276,14.197c-1.744,0.121-3.491,0.34-5.119,0.38c-4.43,0.109-8.838-0.222-13.253-0.529
	c-5.84-0.407-11.617-0.461-17.463-0.268c-6.079,0.2-12.137,0.382-18.219,0.256c-1.906-0.039-3.812-0.079-5.717-0.114
	c0.045-1.084,0.08-2.168,0.095-3.254c0.184-13.701,0.014-27.411,0.14-41.113c0.283-30.818-0.342-62.251,3.352-92.885
	c0.835-6.924,2.007-13.802,2.852-20.725c0.628-5.142,0.794-11.103,3.382-15.729c0.211-0.378,0.45-0.728,0.7-1.066
	c0.58-0.675,1.194-1.314,1.885-1.873c0.737-0.596,1.523-1.11,2.336-1.575c3.975-2.028,9.252-2.647,14.214-3.267
	c3.173-0.075,6.324,0.102,9.211,0.292C266.023,266.652,269.803,269.978,270.942,278.545z M295.179,120.928
	c-0.357,9.855-1.498,21.149-8.633,28.658c-6.026,6.342-15.717,5.522-21.364,12.634c-4.538,5.715-6.188,13.053-6.913,20.166
	c-1.609,15.792,0.47,32.525,1.997,48.278c0.75,7.736,1.81,15.98,0.795,23.809c-8.383-1.195-17.856-0.898-26.004,1.629
	c0.84-8.723,1.675-17.424,2.24-26.186c0.622-9.647,0.447-19.379,1.493-28.989c1.007-9.255,2.69-18.589,1.442-27.903
	c-1.227-9.152-5.755-14.306-13.475-18.926c-7.785-4.659-15.443-9.839-20.746-17.369c-5.752-8.168-8.249-18.076-9.005-27.929
	c-1.288-16.768,0.922-34.264,2.429-51.004c0.617-6.855,1.259-15.219,5.15-21.143c1.903-2.897,4.228-5.942,5.759-1.165
	c4.107,12.81,1.313,28.396-0.266,41.254c-1.22,9.934-3.021,20.407-1.724,30.412c0.729,5.628,2.501,12.958,7.971,15.867
	c6.211,3.304,12.382-1.764,15.668-6.812c3.778-5.803,5.008-13.137,5.881-19.87c1.746-13.466,1.688-27.285,1.54-40.846
	c-0.062-5.724-0.985-15.982,4.079-20.066c2.292-1.849,4.159-1.744,5.717-0.364c5.874,5.199,6.564,17.064,7.378,24.217
	c1.255,11.033,1.544,22.16,1.695,33.254c0.101,7.387-1.159,17.467,2.47,24.218c2.947,5.482,8.899,5.282,12.806,0.99
	c4.489-4.933,6.591-12.235,7.522-18.667c2.859-19.735-2.021-39.248-1.76-58.984c0.029-2.223-0.065-9.837,2.367-10.034
	c2.396-0.194,5.121,3.423,6.133,5.213c1.612,2.851,2.414,6.178,3.069,9.361c2.958,14.368,1.693,29.474,2.826,44.045
	C294.551,99.399,295.57,110.161,295.179,120.928z"/>
<path d="M155.556,406.218c-0.003-15.366-0.919-30.694-1.831-46.028c-0.96-16.16-2.068-32.313-3.377-48.449
	c-0.957-11.785-1.306-23.865-2.957-35.578c-1.047-7.432-4.186-13.861-9.831-17.738c1.038-7.171-0.248-14.593-0.616-21.821
	c-0.556-10.907,0.494-22.036,0.636-32.964c0.298-22.893,1.681-45.571,3.005-68.416c1.342-23.15,1.689-46.3,1.456-69.483
	c-0.115-11.381-0.223-22.786,0.482-34.152c0.398-6.411,2.239-12.805,1.907-19.252c-0.326-6.32-3.675-11.477-10.373-12.24
	c-6.769-0.771-13.329,3.21-18.44,7.215c-12.796,10.026-17.148,26.239-20.458,41.513c-4.369,20.156-7.93,40.481-10.324,60.966
	c-2.235,19.13-3.437,38.404-7.363,57.285c-1.863,8.962-3.758,17.99-4.364,27.144c-0.501,7.563-0.424,16.344,3.949,22.893
	c1.977,2.96,4.805,5.19,7.905,6.878c2.549,1.389,6.021,2.258,8.082,4.369c3.347,3.429,2.154,10.386,1.761,14.686
	c-0.477,5.209-1.19,10.294-0.904,15.501c0.004,0.072-8.972,7.734-9.865,9.104c-2.574,3.947-4.183,8.445-5.328,12.991
	c-2.343,9.302-3.083,18.964-2.794,28.534c0.279,9.236-0.713,18.23-1.075,27.479c-0.613,15.675-1.047,31.356-1.351,47.04
	c-0.514,26.528-0.416,52.993-1.924,79.475c-0.525,9.209-0.761,19.21,2.522,27.985c3.118,8.332,9.14,12.866,17.288,15.761
	c15.436,5.486,36.561,7.713,51.809,0.603c20.432-9.527,13.266-38.038,12.153-55.752
	C154.386,436.661,155.559,421.349,155.556,406.218z M83.518,207.311c-1.92-6.613-1.053-14.015-0.087-20.716
	c2.181-15.13,5.873-29.864,7.679-45.077c2.454-20.656,4.425-41.404,8.419-61.839c3.269-16.726,5.443-34.773,12.259-50.505
	c2.585-5.966,5.885-10.631,11.151-14.497c2.357-1.731,5.202-3.625,8.133-4.164c2.855-0.525,3.211-0.178,3.426,2.408
	c0.488,5.875-1.331,11.805-1.784,17.636c-0.802,10.313-0.77,20.702-0.732,31.039c0.078,21.395-0.094,42.745-1.214,64.117
	c-1.233,23.549-3.238,46.963-3.598,70.557c-0.181,11.827-0.62,23.638-0.898,35.459c-0.178,7.596,1.335,15.336,1.118,22.965
	c-7.944-1.317-17.04-1.285-25.115,0.746c1.392-13.531,7.556-29.763-6.732-37.883C90.386,214.627,85.361,213.659,83.518,207.311z
	 M84.153,444.021c0.184-13.701,0.015-27.411,0.141-41.113c0.283-30.818-0.342-62.251,3.352-92.885
	c0.835-6.924,2.007-13.802,2.852-20.725c0.628-5.142,0.794-11.103,3.382-15.729c0.211-0.378,0.45-0.728,0.7-1.066
	c0.58-0.675,1.194-1.314,1.885-1.873c0.737-0.596,1.523-1.11,2.336-1.575c3.976-2.028,9.252-2.647,14.215-3.267
	c3.173-0.075,6.324,0.102,9.211,0.292c8.657,0.572,12.437,3.898,13.577,12.465c1.362,10.238,1.621,20.801,2.462,31.097
	c1.118,13.678,2.089,27.367,2.948,41.064c1.729,27.592,2.569,55.003,2.342,82.647c-0.04,4.779,0.07,9.495,0.276,14.197
	c-1.744,0.121-3.491,0.34-5.12,0.38c-4.429,0.109-8.838-0.222-13.253-0.529c-5.839-0.407-11.617-0.461-17.463-0.268
	c-6.079,0.2-12.137,0.382-18.22,0.256c-1.906-0.039-3.811-0.079-5.717-0.114C84.104,446.191,84.139,445.107,84.153,444.021z
	 M82.836,467.167c0.112-3.915,0.421-7.82,0.714-11.726c0.7,0.156,1.405,0.286,2.104,0.397c6.929,1.11,14.113,0.861,21.11,0.765
	c6.867-0.095,13.59-0.111,20.456,0.352c4.643,0.313,11.561,1.251,17.146-0.034c0.226,3.26,0.483,6.528,0.77,9.823
	c0.125,1.436,0.302,3.072,0.471,4.824c-3.597,0.45-7.199,1.176-10.86,1.235c-5.742,0.093-11.476-0.274-17.21-0.489
	c-11.296-0.423-23.511-0.931-34.817,1.202C82.708,471.312,82.779,469.158,82.836,467.167z M142.279,494.344
	c-3.944,4.417-11.533,5.285-17.055,5.607c-7.936,0.463-15.96-0.313-23.689-2.147c-5.128-1.217-11.746-2.628-14.929-7.237
	c-2.007-2.906-3.007-6.473-3.486-10.192c11.958,2.078,24.526,0.978,36.622,1.518c7.396,0.331,18.069,1.895,26.339-0.325
	C145.945,486.513,145.036,491.255,142.279,494.344z"/>
<path d="M416.962,175.067c5.192-7.503,9.296-15.656,12.739-24.091c13.687-33.531,16.459-75.217-2.098-107.461
	c-8.591-14.927-21.419-27.989-39.75-27.33c-17.753,0.639-32.037,11.602-41.722,25.836c-10.358,15.223-16.396,34.05-19.702,52.029
	c-3.417,18.591-3.602,38.018,1.785,56.267c3.008,10.192,7.704,19.951,13.992,28.527c3.224,4.397,6.78,8.494,10.69,12.293
	c3.247,3.156,6.941,6.234,8.804,10.484c3.247,7.407,1.789,17.62,1.337,25.464c-0.483,8.377-1.299,17.545,1.695,25.571
	c-0.688,0.275-1.365,0.566-2.026,0.878c-11.813,5.578-15.729,17.857-17.61,29.914c-1.516,9.72-1.634,19.213-0.923,28.768
	c-0.692,6.609-1.237,13.238-1.499,19.939c-0.613,15.675-1.047,31.356-1.351,47.04c-0.513,26.528-0.415,52.993-1.924,79.475
	c-0.525,9.209-0.761,19.21,2.522,27.984c3.118,8.333,9.14,12.866,17.288,15.762c15.435,5.486,36.561,7.713,51.809,0.603
	c20.432-9.527,13.266-38.038,12.153-55.752c-0.95-15.106,0.224-30.418,0.221-45.549c-0.003-15.366-0.919-30.694-1.831-46.028
	c-0.96-16.161-2.068-32.313-3.377-48.45c-0.957-11.785-1.306-23.865-2.957-35.578c-1.468-10.417-7.017-18.893-17.868-21.079
	c-0.145-0.029-0.294-0.053-0.44-0.081c0.583-10.047,0.287-20.131,0.126-30.187c-0.141-8.808-1.57-18.756,4.06-26.247
	C406.072,187.463,412.225,181.913,416.962,175.067z M410.115,489.844c-3.944,4.417-11.533,5.285-17.055,5.607
	c-7.937,0.463-15.96-0.313-23.689-2.147c-5.128-1.217-11.746-2.628-14.93-7.237c-2.007-2.906-3.006-6.473-3.486-10.192
	c11.958,2.078,24.526,0.978,36.622,1.518c7.396,0.331,18.07,1.895,26.34-0.325C413.781,482.013,412.873,486.756,410.115,489.844z
	 M412.971,462.246c0.125,1.436,0.302,3.072,0.471,4.824c-3.597,0.45-7.199,1.176-10.86,1.235c-5.742,0.093-11.476-0.274-17.21-0.489
	c-11.296-0.423-23.511-0.931-34.818,1.202c-0.009-2.206,0.062-4.359,0.118-6.35c0.112-3.914,0.422-7.82,0.714-11.726
	c0.7,0.156,1.405,0.286,2.104,0.397c6.929,1.11,14.113,0.861,21.109,0.764c6.867-0.095,13.591-0.111,20.456,0.353
	c4.643,0.313,11.561,1.25,17.146-0.034C412.427,455.683,412.685,458.951,412.971,462.246z M403.64,274.045
	c1.362,10.238,1.621,20.801,2.462,31.097c1.118,13.678,2.089,27.367,2.948,41.063c1.729,27.592,2.568,55.004,2.341,82.647
	c-0.039,4.78,0.07,9.495,0.276,14.197c-1.744,0.121-3.491,0.34-5.119,0.38c-4.43,0.109-8.838-0.222-13.253-0.529
	c-5.839-0.407-11.617-0.461-17.463-0.268c-6.079,0.2-12.137,0.382-18.22,0.256c-1.906-0.039-3.812-0.079-5.717-0.114
	c0.045-1.084,0.08-2.168,0.095-3.254c0.184-13.701,0.015-27.411,0.141-41.114c0.283-30.818-0.342-62.25,3.352-92.885
	c0.835-6.924,2.007-13.802,2.852-20.725c0.628-5.142,0.795-11.103,3.382-15.729c0.211-0.377,0.45-0.728,0.7-1.066
	c0.579-0.675,1.194-1.314,1.885-1.873c0.738-0.596,1.524-1.11,2.336-1.575c3.976-2.028,9.252-2.647,14.214-3.267
	c3.173-0.075,6.325,0.102,9.211,0.292C398.72,262.152,402.499,265.479,403.64,274.045z M390.687,191.141
	c-4.62,8.406-3.808,18.14-3.667,27.395c0.157,10.265,0.486,20.558-0.042,30.817c-5.024-0.208-10.193,0.14-15.064,1.171
	c-1.486-7.013-0.062-14.999,0.55-21.932c0.683-7.731,1.332-15.606,0.366-23.343c-0.852-6.829-3.961-12.3-8.61-17.301
	c-6.319-6.797-12.7-12.95-17.561-20.97c-18.876-31.146-14.272-70.542-1.169-102.955c6.021-14.894,16.164-30.878,32.063-36.466
	c7.513-2.641,16.62-3.272,23.812,0.575c7.413,3.965,12.834,11.124,17.071,18.199c18.002,30.069,14.857,69.036,2.102,100.487
	c-3.55,8.755-8.13,17.229-13.763,24.824C401.791,178.36,394.741,183.764,390.687,191.141z"/>
<g>
</g>
<g>
</g>
<g>
</g>
<g>
</g>
<g>
</g>
<g>
</g>
<g>
</g>
<g>
</g>
<g>
</g>
<g>
</g>
<g>
</g>
<g>
</g>
<g>
</g>
<g>
</g>
<g>
</g>
</svg>
