<?xml version="1.0" encoding="iso-8859-1"?>
<!-- Generator: Adobe Illustrator 19.0.0, SVG Export Plug-In . SVG Version: 6.00 Build 0)  -->
<svg version="1.1" id="Layer_1" xmlns="http://www.w3.org/2000/svg" xmlns:xlink="http://www.w3.org/1999/xlink" x="0px" y="0px"
	 viewBox="0 0 512 512" style="enable-background:new 0 0 512 512;" xml:space="preserve">
<path style="fill:#FFE7CC;" d="M440.29,382.433c-4.737-4.737-11.035-7.346-17.735-7.346c-6.699,0-12.996,2.609-17.735,7.345
	l-43.513,43.514l-147.061,0.117v-25.895h71.061c13.829,0,25.081-11.251,25.081-25.08s-11.251-25.08-25.081-25.08h-90.73
	c-2.592,0-5.097,0.935-7.057,2.631l-72.582,62.865v60.601h262.682c2.859,0,5.601-1.136,7.623-3.157l55.045-55.046
	C450.067,408.124,450.067,392.212,440.29,382.433z"/>
<path style="opacity:0.1;enable-background:new    ;" d="M220.731,352.639c1.96-1.697,4.465-2.631,7.057-2.631h-33.21
	c-2.592,0-5.097,0.935-7.057,2.631l-72.582,62.865v60.601h33.21v-60.601L220.731,352.639z"/>
<polygon style="fill:#999999;" points="230.617,78.801 243.31,37.379 268.691,37.379 281.384,78.801 "/>
<path style="fill:#B3B3B3;" d="M36.908,289.331c0-121,98.091-219.091,219.092-219.091c121,0,219.091,98.091,219.091,219.091H36.908z
	"/>
<path style="opacity:0.1;enable-background:new    ;" d="M278.497,71.382C271.1,70.628,263.595,70.24,256,70.24
	c-121.001,0-219.092,98.091-219.092,219.091H81.9C81.9,175.926,168.063,82.646,278.497,71.382z"/>
<path style="fill:#CCFFE8;" d="M128.696,491.433c0,6.157-4.99,11.147-11.147,11.147H70.174c-6.158,0-11.147-4.99-11.147-11.147
	V391.112c0-6.157,4.989-11.147,11.147-11.147h47.374c6.158,0,11.147,4.99,11.147,11.147v100.322H128.696z"/>
<path style="opacity:0.1;enable-background:new    ;" d="M81.381,491.433V391.112c0-6.157,4.989-11.147,11.147-11.147H70.174
	c-6.158,0-11.147,4.99-11.147,11.147v100.322c0,6.157,4.989,11.147,11.147,11.147h22.354
	C86.371,502.58,81.381,497.591,81.381,491.433z"/>
<path style="fill:#B1E5CC;" d="M102.43,452.391c-4.465,0-8.084,3.62-8.084,8.083v42.106h16.169v-42.106
	C110.515,456.009,106.895,452.391,102.43,452.391z"/>
<g>
	<path style="fill:#E0BFA4;" d="M421.514,403.369c-3.157-3.157-8.276-3.157-11.432,0c-3.158,3.157-3.158,8.276,0,11.432
		l16.655,16.655l11.432-11.432L421.514,403.369z"/>
	<path style="fill:#E0BFA4;" d="M271.09,368.935c-4.464,0-8.084,3.62-8.084,8.084v23.15h16.169v-23.15
		C279.175,372.553,275.555,368.935,271.09,368.935z"/>
</g>
<g>
	<path style="fill:#808080;" d="M94.901,258.45c4.465,0,8.084-3.62,8.084-8.084s-3.62-8.084-8.084-8.084H41.989
		c-1.164,5.32-2.135,10.712-2.905,16.169H94.901z"/>
	<path style="fill:#808080;" d="M158.45,258.45h-36.557c-4.465,0-8.084-3.62-8.084-8.084s3.62-8.084,8.084-8.084h36.557
		c4.465,0,8.084,3.62,8.084,8.084S162.915,258.45,158.45,258.45z"/>
</g>
<path style="fill:#999999;" d="M512,299.409c0,5.954-4.826,10.779-10.779,10.779H10.779C4.826,310.188,0,305.363,0,299.409v-12.396
	c0-5.953,4.826-10.779,10.779-10.779h490.442c5.953,0,10.779,4.826,10.779,10.779L512,299.409L512,299.409z"/>
<path style="opacity:0.1;enable-background:new    ;" d="M54.434,299.409v-12.396c0-5.953,4.826-10.779,10.779-10.779H10.779
	C4.826,276.236,0,281.062,0,287.015v12.396c0,5.954,4.826,10.779,10.779,10.779h54.434
	C59.259,310.188,54.434,305.363,54.434,299.409z"/>
<path style="fill:#B3B3B3;" d="M237.062,53.111c-1.886,0-3.627-1.011-4.562-2.649l-18.938-33.188
	c-0.928-1.625-0.92-3.621,0.021-5.239c0.939-1.62,2.67-2.615,4.541-2.615h75.751c1.871,0,3.602,0.996,4.541,2.615
	c0.94,1.619,0.948,3.614,0.02,5.239L279.5,50.462c-0.934,1.637-2.676,2.649-4.562,2.649H237.062z"/>
<path style="opacity:0.1;enable-background:new    ;" d="M254.157,50.462l-18.938-33.188c-0.928-1.625-0.92-3.621,0.021-5.239
	c0.939-1.62,2.67-2.615,4.541-2.615h-21.656c-1.871,0-3.602,0.996-4.541,2.615c-0.94,1.619-0.948,3.614-0.021,5.239l18.938,33.188
	c0.935,1.637,2.676,2.649,4.562,2.649h21.657C256.832,53.111,255.091,52.1,254.157,50.462z"/>
<circle style="fill:#B1E5CC;" cx="102.431" cy="414.104" r="10.48"/>
<g>
	<path style="fill:#FFFFFF;" d="M368.521,127.255c-16.435,6.808-21.953,12.327-28.761,28.761
		c-6.808-16.435-12.326-21.953-28.761-28.761c16.435-6.808,21.953-12.326,28.761-28.761
		C346.568,114.929,352.086,120.448,368.521,127.255z"/>
	<circle style="fill:#FFFFFF;" cx="386.612" cy="151.51" r="12.689"/>
</g>
<g>
</g>
<g>
</g>
<g>
</g>
<g>
</g>
<g>
</g>
<g>
</g>
<g>
</g>
<g>
</g>
<g>
</g>
<g>
</g>
<g>
</g>
<g>
</g>
<g>
</g>
<g>
</g>
<g>
</g>
</svg>
