<?xml version="1.0" encoding="iso-8859-1"?>
<!-- Generator: Adobe Illustrator 18.0.0, SVG Export Plug-In . SVG Version: 6.00 Build 0)  -->
<!DOCTYPE svg PUBLIC "-//W3C//DTD SVG 1.1//EN" "http://www.w3.org/Graphics/SVG/1.1/DTD/svg11.dtd">
<svg version="1.1" id="Capa_1" xmlns="http://www.w3.org/2000/svg" xmlns:xlink="http://www.w3.org/1999/xlink" x="0px" y="0px"
	 viewBox="0 0 56 56" style="enable-background:new 0 0 56 56;" xml:space="preserve">
<g>
	<g>
		<path style="fill:#DAE7EF;" d="M40.753,20.669L38.02,2.63c-0.015,0.003-0.028,0.009-0.042,0.012C37.983,2.668,38,2.695,38,2.722
			C38,3.827,33.523,4.5,28,4.5S18,3.827,18,2.722c0-0.016,0.008-0.032,0.014-0.048c-0.013-0.007-0.024-0.015-0.037-0.022
			l-2.73,18.017C14.065,28.474,20.107,35.5,28,35.5S41.935,28.474,40.753,20.669z"/>
		<path style="fill:#BBD7EA;" d="M28,36c-3.908,0-7.611-1.699-10.159-4.663c-2.548-2.963-3.674-6.879-3.088-10.743l2.73-18.017
			c0.024-0.162,0.127-0.302,0.274-0.374c0.147-0.073,0.321-0.067,0.464,0.013c0.181,0.102,0.304,0.316,0.286,0.521
			C18.749,3.123,21.423,4,28,4c6.477,0,9.169-0.85,9.484-1.272c-0.021-0.125,0.005-0.254,0.075-0.36
			c0.074-0.112,0.19-0.19,0.323-0.217c0.134-0.028,0.292-0.003,0.405,0.075c0.112,0.079,0.207,0.194,0.227,0.329l2.733,18.039
			c0.586,3.864-0.54,7.78-3.088,10.743C35.611,34.301,31.908,36,28,36z M18.314,3.763l-2.573,16.981
			c-0.542,3.575,0.5,7.199,2.858,9.941S24.383,35,28,35s7.043-1.572,9.401-4.314s3.399-6.366,2.858-9.941L37.686,3.763
			C35.686,4.859,30.515,5,28,5S20.314,4.859,18.314,3.763z"/>
	</g>
	<g>
		<ellipse style="fill:#DAE7EF;" cx="28" cy="53" rx="11" ry="2.5"/>
		<path style="fill:#BBD7EA;" d="M28,56c-3.978,0-11.5-0.627-11.5-3s7.522-3,11.5-3s11.5,0.627,11.5,3S31.978,56,28,56z M28,51
			c-6.794,0-10.5,1.321-10.5,2s3.706,2,10.5,2s10.5-1.321,10.5-2S34.794,51,28,51z"/>
	</g>
	<path style="fill:#BBD7EA;" d="M28,52.5c-0.552,0-1-0.447-1-1V35.359c0-0.553,0.448-1,1-1s1,0.447,1,1V51.5
		C29,52.053,28.552,52.5,28,52.5z"/>
	<g>
		<path style="fill:#DAE7EF;" d="M38,2.722C38,3.827,33.523,4.5,28,4.5S18,3.827,18,2.722S22.477,0.5,28,0.5S38,1.618,38,2.722z"/>
		<path style="fill:#BBD7EA;" d="M28,5c-3.157,0-10.5-0.222-10.5-2.277C17.5,0.739,23.94,0,28,0s10.5,0.739,10.5,2.723
			C38.5,4.778,31.157,5,28,5z M28,1c-5.757,0-9.297,1.151-9.502,1.742C18.686,3.103,21.345,4,28,4c6.53,0,9.213-0.864,9.492-1.283
			C37.196,2.118,33.675,1,28,1z M37.502,2.742h0.01H37.502z"/>
	</g>
	<path style="fill:#701C11;" d="M40.578,19.789L40.578,19.789L40.578,19.789c0-0.179-0.088-0.359-0.256-0.536
		c-0.084-0.089-0.188-0.177-0.311-0.263c-1.597-1.13-6.384-2.089-12.043-2.089c-0.424,0-0.843,0.006-1.256,0.016
		c-0.134,0.003-0.263,0.01-0.396,0.014c-0.277,0.009-0.553,0.018-0.824,0.032c-0.157,0.008-0.308,0.019-0.463,0.028
		c-0.24,0.014-0.481,0.029-0.716,0.046c-0.165,0.012-0.324,0.028-0.485,0.042c-0.216,0.019-0.432,0.037-0.642,0.059
		c-0.168,0.017-0.331,0.037-0.495,0.056c-0.195,0.022-0.39,0.044-0.579,0.069c-0.167,0.022-0.329,0.045-0.491,0.068
		c-0.176,0.025-0.352,0.051-0.523,0.078c-0.164,0.026-0.322,0.053-0.48,0.081c-0.159,0.028-0.316,0.056-0.469,0.085
		c-0.159,0.03-0.313,0.062-0.465,0.094c-0.139,0.029-0.276,0.059-0.409,0.089c-0.155,0.035-0.305,0.071-0.452,0.108
		c-0.118,0.03-0.234,0.06-0.347,0.09c-0.147,0.04-0.29,0.08-0.428,0.121c-0.1,0.03-0.196,0.06-0.292,0.091
		c-0.137,0.044-0.269,0.088-0.396,0.133c-0.082,0.029-0.159,0.059-0.236,0.089c-0.125,0.048-0.247,0.097-0.36,0.147
		c-0.063,0.028-0.12,0.056-0.179,0.084c-0.112,0.053-0.22,0.106-0.318,0.16c-0.046,0.025-0.085,0.051-0.127,0.077
		c-0.096,0.058-0.189,0.116-0.267,0.174c-0.029,0.022-0.05,0.043-0.077,0.065c-0.077,0.063-0.152,0.127-0.208,0.191
		c-0.013,0.015-0.021,0.031-0.033,0.046c-0.122,0.151-0.198,0.303-0.198,0.455c0,0.019,0.012,0.037,0.014,0.056l0-0.001
		l-0.125,0.825C14.065,28.474,20.107,35.5,28,35.5s13.935-7.026,12.753-14.831L40.578,19.789z"/>
	<path style="fill:#60140F;" d="M40.578,19.789c0,1.436-5.646,2.311-12.61,2.311s-12.61-0.875-12.61-2.311s5.646-2.889,12.61-2.889
		S40.578,18.353,40.578,19.789z"/>
</g>
<g>
</g>
<g>
</g>
<g>
</g>
<g>
</g>
<g>
</g>
<g>
</g>
<g>
</g>
<g>
</g>
<g>
</g>
<g>
</g>
<g>
</g>
<g>
</g>
<g>
</g>
<g>
</g>
<g>
</g>
</svg>
