<?xml version="1.0" encoding="iso-8859-1"?>
<!-- Generator: Adobe Illustrator 18.0.0, SVG Export Plug-In . SVG Version: 6.00 Build 0)  -->
<!DOCTYPE svg PUBLIC "-//W3C//DTD SVG 1.1//EN" "http://www.w3.org/Graphics/SVG/1.1/DTD/svg11.dtd">
<svg version="1.1" id="Capa_1" xmlns="http://www.w3.org/2000/svg" xmlns:xlink="http://www.w3.org/1999/xlink" x="0px" y="0px"
	 viewBox="0 0 53.896 53.896" style="enable-background:new 0 0 53.896 53.896;" xml:space="preserve">
<g>
	<path style="fill:#436B1C;" d="M31.175,7.396c0,0,5.844-1.5,8.719,0c0,0-0.875,4.875-3.781,5.594c0,0,6-0.854,6.656-3.13
		c0,0,1.469,1.349,1.344,6.224c0,0,3.258-8.726,0.552-10.688C44.664,5.396,41.581-1.823,31.175,7.396z"/>
	<path style="fill:#88C057;" d="M42.769,9.86c-0.173,0.601-0.724,1.1-1.433,1.514c-1.67,2.212-4.588,5.959-8.147,10.044
		C27.041,36.468,18.58,42.791,18.431,46.435c-0.104,2.538,1.249,3.2,2.488,3.282c1.079,0.071,2.127-0.339,2.978-1.007
		C33.934,40.839,41.378,19.848,43.638,11.6C43.25,10.306,42.769,9.86,42.769,9.86z"/>
	<path style="fill:#88C057;" d="M34.773,6.806C20.29,19.015,4.421,23.217,2.05,26.395c-1.373,1.841-0.75,3.031,0.09,3.73
		c0.74,0.616,1.719,0.847,2.678,0.769c4.128-0.338,9.142-2.506,14.127-5.361c5.611-4.572,12.303-10.665,18.148-18.78
		C36.318,6.711,35.523,6.74,34.773,6.806z"/>
	<path style="fill:#659C35;" d="M36.112,12.99c2.906-0.719,3.781-5.594,3.781-5.594c-0.773-0.403-1.761-0.585-2.791-0.642
		C24.843,23.781,8.81,31.869,6.982,35.823c-1.017,2.199-0.186,3.314,0.768,3.872c0.825,0.483,1.827,0.537,2.744,0.267
		c10.99-3.241,26.059-22.252,30.842-28.589C39.358,12.525,36.112,12.99,36.112,12.99z"/>
	<path style="fill:#A46F3E;" d="M43.637,5.01c-0.168,0-0.338-0.042-0.494-0.131c-0.479-0.273-0.647-0.885-0.374-1.364
		c0.854-1.497,2.369-2.663,4.16-3.201c1.824-0.547,3.726-0.373,5.218,0.477c0.48,0.274,0.647,0.885,0.374,1.364
		c-0.274,0.479-0.886,0.646-1.364,0.374c-1.02-0.582-2.35-0.691-3.652-0.299C46.2,2.621,45.107,3.45,44.507,4.505
		C44.322,4.828,43.984,5.01,43.637,5.01z"/>
	<path style="fill:#659C35;" d="M40.144,53.896L40.144,53.896c-2.75,0-5-2.25-5-5v0c0-2.75,2.25-5,5-5h0c2.75,0,5,2.25,5,5v0
		C45.144,51.646,42.894,53.896,40.144,53.896z"/>
	<path style="fill:#436B1C;" d="M46.144,41.896c-1.774,0-3.329,0.943-4.217,2.345c1.873,0.724,3.217,2.534,3.217,4.655
		c0,0.976-0.294,1.883-0.783,2.655c0.556,0.215,1.154,0.345,1.783,0.345c2.75,0,5-2.25,5-5S48.894,41.896,46.144,41.896z"/>
</g>
<g>
</g>
<g>
</g>
<g>
</g>
<g>
</g>
<g>
</g>
<g>
</g>
<g>
</g>
<g>
</g>
<g>
</g>
<g>
</g>
<g>
</g>
<g>
</g>
<g>
</g>
<g>
</g>
<g>
</g>
</svg>
