<?xml version="1.0" encoding="iso-8859-1"?>
<!-- Generator: Adobe Illustrator 19.0.0, SVG Export Plug-In . SVG Version: 6.00 Build 0)  -->
<svg version="1.1" id="Capa_1" xmlns="http://www.w3.org/2000/svg" xmlns:xlink="http://www.w3.org/1999/xlink" x="0px" y="0px"
	 viewBox="0 0 512 512" style="enable-background:new 0 0 512 512;" xml:space="preserve">
<path style="fill:#70B5E8;" d="M0,90.949v383.303C0,495.1,16.9,512,37.748,512h436.505C495.1,512,512,495.1,512,474.252V90.949H0z"
	/>
<path style="fill:#52A5D8;" d="M30.907,474.252V90.949H0v383.303C0,495.1,16.9,512,37.748,512h30.907
	C47.808,512,30.907,495.1,30.907,474.252z"/>
<path style="fill:#666666;" d="M512,37.748C512,16.9,495.1,0,474.252,0H37.748C16.9,0,0,16.9,0,37.748v64.284h512V37.748z"/>
<path style="fill:#535454;" d="M68.691,0H37.748C16.9,0,0,16.9,0,37.748v64.284h30.944V37.748C30.944,16.9,47.844,0,68.691,0z"/>
<path style="fill:#F94A46;" d="M51.641,57.442c-1.816-1.241-2.935-3.035-3.286-4.914c-0.876-4.29,2.045-8.334,6.068-9.087
	c4.655-0.971,9.231,2.631,9.231,7.572c0,3.76-2.718,6.905-6.212,7.573C56.402,58.797,53.231,58.518,51.641,57.442z"/>
<path style="fill:#FFB70D;" d="M80.91,51.013c0-5.484,5.615-9.263,10.684-7.129c6.995,2.808,6.05,13.27-1.442,14.702
	C85.39,59.554,80.91,55.881,80.91,51.013z"/>
<path style="fill:#92B620;" d="M119.843,58.586c-8.364-1.565-8.134-13.623,0-15.145c6.756-1.363,11.719,6.26,7.933,11.858
	c-0.289,0.423-0.608,0.824-0.968,1.175C125,58.294,122.337,59.104,119.843,58.586z"/>
<g>
	<path style="fill:#7E7F7F;" d="M385.606,58.742H161.528c-4.267,0-7.727-3.459-7.727-7.727s3.459-7.727,7.727-7.727h224.078
		c4.267,0,7.727,3.459,7.727,7.727S389.874,58.742,385.606,58.742z"/>
	<path style="fill:#7E7F7F;" d="M454.633,58.742h-29.362c-4.267,0-7.727-3.459-7.727-7.727s3.459-7.727,7.727-7.727h29.362
		c4.267,0,7.727,3.459,7.727,7.727S458.9,58.742,454.633,58.742z"/>
</g>
<path style="fill:#F9F9F9;" d="M325.063,197.74h-29.362c-4.267,0-7.727-3.459-7.727-7.727s3.459-7.727,7.727-7.727h29.362
	c4.267,0,7.727,3.459,7.727,7.727C332.79,194.281,329.33,197.74,325.063,197.74z"/>
<path style="fill:#84C7EF;" d="M134.21,197.74h-29.362c-4.267,0-7.727-3.459-7.727-7.727s3.459-7.727,7.727-7.727h29.362
	c4.267,0,7.727,3.459,7.727,7.727C141.937,194.281,138.477,197.74,134.21,197.74z"/>
<path style="fill:#A4D9F4;" d="M264.021,197.74H162.649c-4.267,0-7.727-3.459-7.727-7.727s3.459-7.727,7.727-7.727h101.372
	c4.267,0,7.727,3.459,7.727,7.727S268.288,197.74,264.021,197.74z"/>
<g>
	<path style="fill:#FFB70D;" d="M453.843,197.74h-97.616c-4.267,0-7.727-3.459-7.727-7.727s3.459-7.727,7.727-7.727h97.616
		c4.267,0,7.727,3.459,7.727,7.727C461.57,194.281,458.111,197.74,453.843,197.74z"/>
	<path style="fill:#FFB70D;" d="M72.358,197.74h-15.4c-4.267,0-7.727-3.459-7.727-7.727s3.459-7.727,7.727-7.727h15.4
		c4.267,0,7.727,3.459,7.727,7.727S76.625,197.74,72.358,197.74z"/>
</g>
<path style="fill:#F9F9F9;" d="M72.358,234.829h-15.4c-4.267,0-7.727-3.459-7.727-7.727s3.459-7.727,7.727-7.727h15.4
	c4.267,0,7.727,3.459,7.727,7.727S76.625,234.829,72.358,234.829z"/>
<g>
	<path style="fill:#84C7EF;" d="M72.358,271.918h-15.4c-4.267,0-7.727-3.459-7.727-7.727c0-4.268,3.459-7.727,7.727-7.727h15.4
		c4.267,0,7.727,3.459,7.727,7.727C80.085,268.458,76.625,271.918,72.358,271.918z"/>
	<path style="fill:#84C7EF;" d="M72.358,309.006h-15.4c-4.267,0-7.727-3.459-7.727-7.727c0-4.268,3.459-7.727,7.727-7.727h15.4
		c4.267,0,7.727,3.459,7.727,7.727S76.625,309.006,72.358,309.006z"/>
	<path style="fill:#84C7EF;" d="M72.358,346.095h-15.4c-4.267,0-7.727-3.459-7.727-7.727c0-4.268,3.459-7.727,7.727-7.727h15.4
		c4.267,0,7.727,3.459,7.727,7.727S76.625,346.095,72.358,346.095z"/>
</g>
<path style="fill:#F9F9F9;" d="M72.358,383.184h-15.4c-4.267,0-7.727-3.459-7.727-7.727c0-4.268,3.459-7.727,7.727-7.727h15.4
	c4.267,0,7.727,3.459,7.727,7.727C80.085,379.725,76.625,383.184,72.358,383.184z"/>
<g>
	<path style="fill:#84C7EF;" d="M159.973,234.829h-55.126c-4.267,0-7.727-3.459-7.727-7.727s3.459-7.727,7.727-7.727h55.126
		c4.267,0,7.727,3.459,7.727,7.727C167.7,231.37,164.241,234.829,159.973,234.829z"/>
	<path style="fill:#84C7EF;" d="M135.763,271.918h-30.915c-4.267,0-7.727-3.459-7.727-7.727c0-4.268,3.459-7.727,7.727-7.727h30.915
		c4.267,0,7.727,3.459,7.727,7.727C143.49,268.458,140.03,271.918,135.763,271.918z"/>
</g>
<path style="fill:#F9F9F9;" d="M135.763,309.006h-30.915c-4.267,0-7.727-3.459-7.727-7.727c0-4.268,3.459-7.727,7.727-7.727h30.915
	c4.267,0,7.727,3.459,7.727,7.727S140.03,309.006,135.763,309.006z"/>
<path style="fill:#FFB70D;" d="M135.763,346.095h-30.915c-4.267,0-7.727-3.459-7.727-7.727c0-4.268,3.459-7.727,7.727-7.727h30.915
	c4.267,0,7.727,3.459,7.727,7.727S140.03,346.095,135.763,346.095z"/>
<path style="fill:#A4D9F4;" d="M159.973,383.184h-55.126c-4.267,0-7.727-3.459-7.727-7.727c0-4.268,3.459-7.727,7.727-7.727h55.126
	c4.267,0,7.727,3.459,7.727,7.727C167.7,379.725,164.241,383.184,159.973,383.184z"/>
<path style="fill:#84C7EF;" d="M453.843,234.829H340.916c-4.267,0-7.727-3.459-7.727-7.727s3.46-7.727,7.727-7.727h112.927
	c4.267,0,7.727,3.459,7.727,7.727C461.57,231.37,458.111,234.829,453.843,234.829z"/>
<path style="fill:#F9F9F9;" d="M453.843,271.918h-88.716c-4.267,0-7.727-3.459-7.727-7.727c0-4.268,3.46-7.727,7.727-7.727h88.716
	c4.267,0,7.727,3.459,7.727,7.727C461.57,268.458,458.111,271.918,453.843,271.918z"/>
<path style="fill:#A4D9F4;" d="M453.843,309.006h-88.716c-4.267,0-7.727-3.459-7.727-7.727c0-4.268,3.46-7.727,7.727-7.727h88.716
	c4.267,0,7.727,3.459,7.727,7.727C461.57,305.547,458.111,309.006,453.843,309.006z"/>
<g>
	<path style="fill:#84C7EF;" d="M453.843,346.095h-88.716c-4.267,0-7.727-3.459-7.727-7.727c0-4.268,3.46-7.727,7.727-7.727h88.716
		c4.267,0,7.727,3.459,7.727,7.727C461.57,342.636,458.111,346.095,453.843,346.095z"/>
	<path style="fill:#84C7EF;" d="M453.843,383.184H340.916c-4.267,0-7.727-3.459-7.727-7.727c0-4.268,3.46-7.727,7.727-7.727h112.927
		c4.267,0,7.727,3.459,7.727,7.727C461.57,379.725,458.111,383.184,453.843,383.184z"/>
	<path style="fill:#84C7EF;" d="M72.358,420.273h-15.4c-4.267,0-7.727-3.459-7.727-7.727c0-4.268,3.459-7.727,7.727-7.727h15.4
		c4.267,0,7.727,3.459,7.727,7.727S76.625,420.273,72.358,420.273z"/>
	<path style="fill:#84C7EF;" d="M72.358,457.362h-15.4c-4.267,0-7.727-3.459-7.727-7.727c0-4.268,3.459-7.727,7.727-7.727h15.4
		c4.267,0,7.727,3.459,7.727,7.727C80.085,453.903,76.625,457.362,72.358,457.362z"/>
</g>
<path style="fill:#F9F9F9;" d="M262.99,420.273h-29.362c-4.267,0-7.727-3.459-7.727-7.727c0-4.268,3.459-7.727,7.727-7.727h29.362
	c4.267,0,7.727,3.459,7.727,7.727C270.717,416.814,267.258,420.273,262.99,420.273z"/>
<path style="fill:#A4D9F4;" d="M396.042,420.273H294.671c-4.267,0-7.727-3.459-7.727-7.727c0-4.268,3.459-7.727,7.727-7.727h101.372
	c4.267,0,7.727,3.459,7.727,7.727C403.769,416.814,400.309,420.273,396.042,420.273z"/>
<path style="fill:#84C7EF;" d="M202.464,420.273h-97.616c-4.267,0-7.727-3.459-7.727-7.727c0-4.268,3.459-7.727,7.727-7.727h97.616
	c4.267,0,7.727,3.459,7.727,7.727C210.19,416.814,206.731,420.273,202.464,420.273z"/>
<path style="fill:#FFB70D;" d="M453.843,420.273h-29.362c-4.267,0-7.727-3.459-7.727-7.727c0-4.268,3.459-7.727,7.727-7.727h29.362
	c4.267,0,7.727,3.459,7.727,7.727C461.57,416.814,458.111,420.273,453.843,420.273z"/>
<path style="fill:#84C7EF;" d="M325.063,457.362h-29.362c-4.267,0-7.727-3.459-7.727-7.727c0-4.268,3.459-7.727,7.727-7.727h29.362
	c4.267,0,7.727,3.459,7.727,7.727C332.79,453.903,329.33,457.362,325.063,457.362z"/>
<path style="fill:#F9F9F9;" d="M264.021,457.362H162.649c-4.267,0-7.727-3.459-7.727-7.727c0-4.268,3.459-7.727,7.727-7.727h101.372
	c4.267,0,7.727,3.459,7.727,7.727C271.748,453.903,268.288,457.362,264.021,457.362z"/>
<path style="fill:#FFB70D;" d="M453.843,457.362h-97.616c-4.267,0-7.727-3.459-7.727-7.727c0-4.268,3.459-7.727,7.727-7.727h97.616
	c4.267,0,7.727,3.459,7.727,7.727C461.57,453.903,458.111,457.362,453.843,457.362z"/>
<path style="fill:#84C7EF;" d="M134.21,457.362h-29.362c-4.267,0-7.727-3.459-7.727-7.727c0-4.268,3.459-7.727,7.727-7.727h29.362
	c4.267,0,7.727,3.459,7.727,7.727C141.937,453.903,138.477,457.362,134.21,457.362z"/>
<circle style="fill:#F94A46;" cx="246.63" cy="301.28" r="74.18"/>
<path style="fill:#EA3939;" d="M209.162,322.915c-17.833-30.888-10.918-69.263,14.579-92.196c-4.846,1.578-9.604,3.671-14.195,6.321
	c-35.479,20.484-47.634,65.85-27.151,101.329c20.484,35.479,65.85,47.635,101.329,27.151c4.591-2.65,8.782-5.724,12.572-9.133
	C263.687,367.002,226.995,353.803,209.162,322.915z"/>
<g>
	<path style="fill:#F9F9F9;" d="M257.563,301.28l17.084-17.084c3.018-3.018,3.018-7.91,0-10.928c-3.017-3.016-7.91-3.016-10.927,0
		l-17.085,17.085l-17.085-17.085c-3.017-3.016-7.91-3.016-10.927,0c-3.018,3.018-3.018,7.91,0,10.928l17.084,17.084l-17.084,17.084
		c-3.018,3.018-3.018,7.91,0,10.928c1.509,1.508,3.486,2.263,5.464,2.263c1.978,0,3.955-0.755,5.464-2.263l17.085-17.085
		l17.085,17.085c1.509,1.508,3.486,2.263,5.464,2.263c1.977,0,3.955-0.755,5.464-2.263c3.018-3.018,3.018-7.91,0-10.928
		L257.563,301.28z"/>
	<path style="fill:#F9F9F9;" d="M72.358,160.668h-15.4c-4.267,0-7.727-3.459-7.727-7.727s3.459-7.727,7.727-7.727h15.4
		c4.267,0,7.727,3.459,7.727,7.727S76.625,160.668,72.358,160.668z"/>
</g>
<path style="fill:#A4D9F4;" d="M262.99,160.668h-29.362c-4.267,0-7.727-3.459-7.727-7.727s3.459-7.727,7.727-7.727h29.362
	c4.267,0,7.727,3.459,7.727,7.727C270.717,157.209,267.258,160.668,262.99,160.668z"/>
<g>
	<path style="fill:#84C7EF;" d="M396.042,160.668H294.671c-4.267,0-7.727-3.459-7.727-7.727s3.459-7.727,7.727-7.727h101.372
		c4.267,0,7.727,3.459,7.727,7.727C403.769,157.209,400.309,160.668,396.042,160.668z"/>
	<path style="fill:#84C7EF;" d="M202.464,160.668h-97.616c-4.267,0-7.727-3.459-7.727-7.727s3.459-7.727,7.727-7.727h97.616
		c4.267,0,7.727,3.459,7.727,7.727C210.19,157.209,206.731,160.668,202.464,160.668z"/>
</g>
<path style="fill:#F9F9F9;" d="M453.843,160.668h-29.362c-4.267,0-7.727-3.459-7.727-7.727s3.459-7.727,7.727-7.727h29.362
	c4.267,0,7.727,3.459,7.727,7.727C461.57,157.209,458.111,160.668,453.843,160.668z"/>
<g>
</g>
<g>
</g>
<g>
</g>
<g>
</g>
<g>
</g>
<g>
</g>
<g>
</g>
<g>
</g>
<g>
</g>
<g>
</g>
<g>
</g>
<g>
</g>
<g>
</g>
<g>
</g>
<g>
</g>
</svg>
