<?xml version="1.0" encoding="iso-8859-1"?>
<!-- Generator: Adobe Illustrator 19.0.0, SVG Export Plug-In . SVG Version: 6.00 Build 0)  -->
<svg version="1.1" id="Capa_1" xmlns="http://www.w3.org/2000/svg" xmlns:xlink="http://www.w3.org/1999/xlink" x="0px" y="0px"
	 viewBox="0 0 512 512" style="enable-background:new 0 0 512 512;" xml:space="preserve">
<g>
	<polygon style="fill:#FF5D5D;" points="423.323,10 447.642,59.243 501.994,67.126 462.677,105.473 471.976,159.601 
		423.357,134.056 374.75,159.627 384.02,105.494 344.682,67.168 399.03,59.256 	"/>
	<polygon style="fill:#FF5D5D;" points="501.995,238.313 447.642,230.43 423.323,181.187 399.03,230.443 365.238,235.362 
		361.75,254.985 376.137,268.999 470.53,268.999 	"/>
</g>
<g>
	<polygon style="fill:#EDF2FA;" points="374.75,330.813 423.357,305.243 471.976,330.787 462.677,276.659 470.53,268.999 
		376.137,268.999 384.02,276.68 	"/>
	<polygon style="fill:#EDF2FA;" points="423.323,352.373 447.642,401.617 501.994,409.499 462.677,447.846 471.976,501.974 
		423.357,476.43 374.75,502 384.02,447.867 344.682,409.541 399.03,401.63 	"/>
</g>
<rect x="9.999" y="218.907" style="fill:#62CD4D;" width="53.999" height="205.087"/>
<path style="fill:#FEDA9B;" d="M339.926,214.783H176.403l29.544-63.85c7.618-16.463,4.94-35.856-6.853-49.639l-11.372-13.292
	L63.926,237.627v170.949l19.032,7.464c12.736,4.995,26.296,7.559,39.976,7.559h134.907c14.278,0,25.853-11.575,25.853-25.853v-0.499
	c0-14.278-11.575-25.853-25.853-25.853h31.625c14.278,0,25.853-11.575,25.853-25.853v-0.499c0-14.278-11.575-25.853-25.853-25.853
	c14.278,0,25.853-11.575,25.853-25.853v-0.499c0-14.278-11.575-25.853-25.853-25.853h50.459c14.278,0,25.853-11.575,25.853-25.853
	v-0.499C365.778,226.358,354.203,214.783,339.926,214.783z"/>
<path d="M38.833,377.185c-5.523,0-10,4.477-10,10v0.13c0,5.523,4.477,10,10,10s10-4.477,10-10v-0.13
	C48.833,381.662,44.356,377.185,38.833,377.185z"/>
<path d="M278.999,224.78c2.63,0,5.21-1.06,7.07-2.93c1.86-1.86,2.93-4.44,2.93-7.07s-1.07-5.21-2.93-7.07
	c-1.86-1.86-4.44-2.93-7.07-2.93s-5.21,1.07-7.07,2.93c-1.86,1.86-2.93,4.44-2.93,7.07s1.07,5.21,2.93,7.07
	C273.79,223.72,276.37,224.78,278.999,224.78z"/>
<path d="M123.552,175.571c2.63,0,5.2-1.07,7.07-2.93c1.86-1.87,2.93-4.44,2.93-7.07c0-2.64-1.07-5.21-2.93-7.08
	c-1.87-1.86-4.44-2.92-7.07-2.92c-2.64,0-5.22,1.06-7.08,2.92c-1.86,1.87-2.93,4.44-2.93,7.08c0,2.63,1.07,5.2,2.93,7.07
	C118.342,174.501,120.912,175.571,123.552,175.571z"/>
<path d="M143.426,141.54c4.255,3.521,10.559,2.926,14.079-1.33l30.346-36.676l3.645,4.261c9.223,10.78,11.333,26.064,5.375,38.939
	l-29.544,63.85c-1.433,3.097-1.188,6.71,0.65,9.585c1.837,2.875,5.014,4.614,8.426,4.614h57.198c5.523,0,10-4.477,10-10
	s-4.477-10-10-10h-41.553l22.974-49.651c9.231-19.951,5.962-43.635-8.33-60.339l-11.373-13.292
	c-1.918-2.242-4.727-3.545-7.681-3.499c-2.951,0.024-5.741,1.351-7.622,3.625l-37.921,45.833
	C138.575,131.716,139.17,138.019,143.426,141.54z"/>
<path d="M373.276,108.988l-8.382,48.95c-0.643,3.752,0.901,7.543,3.981,9.78c1.742,1.265,3.804,1.908,5.876,1.908
	c1.592,0,3.191-0.38,4.655-1.15l43.953-23.123l43.965,23.099c3.369,1.771,7.451,1.475,10.531-0.764
	c3.079-2.238,4.62-6.03,3.976-9.782l-8.409-48.946l35.555-34.676c2.725-2.658,3.705-6.632,2.528-10.252
	c-1.177-3.62-4.308-6.257-8.074-6.804L454.282,50.1L432.29,5.571C430.603,2.16,427.128,0,423.323,0h-0.002
	c-3.807,0.001-7.282,2.163-8.966,5.577l-21.968,44.541l-49.145,7.155c-3.767,0.548-6.896,3.188-8.071,6.808
	c-1.175,3.62-0.193,7.594,2.533,10.25L373.276,108.988z M400.471,69.151c3.257-0.474,6.072-2.521,7.528-5.472l15.331-31.085
	l15.348,31.077c1.458,2.951,4.274,4.996,7.531,5.468l34.301,4.975l-24.813,24.199c-2.356,2.298-3.431,5.608-2.874,8.852
	l5.868,34.159l-30.683-16.12c-2.914-1.531-6.394-1.53-9.307,0.002l-30.674,16.137l5.85-34.162c0.556-3.244-0.521-6.554-2.878-8.851
	l-24.826-24.187L400.471,69.151z"/>
<path d="M503.43,228.417l-49.149-7.129l-21.992-44.529c-1.686-3.412-5.161-5.572-8.966-5.572h-0.002
	c-3.807,0.001-7.282,2.163-8.966,5.577l-21.968,44.541l-20.564,2.994c-5.953-11.574-18.011-19.516-31.898-19.516H315.32
	c-5.523,0-10,4.477-10,10s4.477,10,10,10h24.607c8.741,0,15.853,7.111,15.853,15.853v0.5c0,8.741-7.111,15.853-15.853,15.853
	h-50.459h-69.381c-5.523,0-10,4.477-10,10c0,5.523,4.477,10,10,10h69.38c8.741,0,15.853,7.111,15.853,15.853v0.5
	c0,8.741-7.111,15.853-15.853,15.853h-69.38c-5.523,0-10,4.477-10,10c0,5.523,4.477,10,10,10h69.38
	c8.741,0,15.853,7.111,15.853,15.853v0.5c0,8.741-7.111,15.853-15.853,15.853h-31.625h-37.756c-5.523,0-10,4.477-10,10
	c0,5.523,4.477,10,10,10h37.755c8.741,0,15.853,7.111,15.853,15.853v0.5c0,8.741-7.111,15.853-15.853,15.853H122.935
	c-12.483,0-24.705-2.311-36.326-6.869l-12.607-4.945V241.135l34.859-42.132c3.521-4.255,2.925-10.559-1.33-14.079
	c-4.255-3.521-10.559-2.926-14.079,1.33l-21.746,26.284c-1.834-2.214-4.604-3.626-7.704-3.626H10.003c-5.523,0-10,4.477-10,10
	v205.086c0,5.523,4.477,10,10,10h53.999c5.523,0,10-4.477,10-10v-0.729l5.305,2.081c13.958,5.474,28.636,8.25,43.627,8.25h134.907
	c19.769,0,35.853-16.083,35.853-35.853v-0.5c0-5.694-1.341-11.079-3.713-15.866c19.532-0.277,35.339-16.243,35.339-35.839v-0.5
	c0-10.151-4.248-19.323-11.051-25.853c6.803-6.529,11.051-15.701,11.051-25.853v-0.5c0-5.689-1.338-11.069-3.707-15.853h18.314
	c8.365,0,16.063-2.887,22.169-7.707l11.182,10.894l-8.383,48.954c-0.643,3.752,0.901,7.543,3.981,9.78
	c1.742,1.265,3.804,1.908,5.876,1.908c1.592,0,3.191-0.38,4.655-1.15l43.952-23.123l43.965,23.099
	c3.369,1.771,7.451,1.475,10.531-0.764c3.079-2.238,4.62-6.03,3.976-9.781l-8.409-48.947l35.555-34.675
	c2.725-2.658,3.705-6.632,2.528-10.252C510.327,231.601,507.197,228.963,503.43,228.417z M20.003,413.997V228.911h34v185.086H20.003
	z M400.471,240.338c3.257-0.474,6.072-2.521,7.528-5.472l15.331-31.085l15.348,31.077c1.458,2.951,4.274,4.996,7.531,5.468
	l34.301,4.975l-14.046,13.699h-86.259l-6.379-6.214c0.967-2.805,1.593-5.766,1.833-8.835L400.471,240.338z M428.006,296.391
	c-2.914-1.531-6.394-1.53-9.307,0.002l-30.674,16.137l5.742-33.531h59.164l5.757,33.512L428.006,296.391z"/>
<path d="M503.43,399.604l-49.149-7.129l-21.992-44.529c-1.686-3.412-5.161-5.572-8.966-5.572c-0.001,0-0.002,0-0.002,0
	c-3.807,0.001-7.282,2.163-8.966,5.577l-21.968,44.541l-49.145,7.155c-3.767,0.548-6.896,3.188-8.071,6.808
	c-1.175,3.62-0.193,7.594,2.533,10.25l35.573,34.657l-8.382,48.951c-0.643,3.752,0.901,7.543,3.981,9.78
	c1.742,1.265,3.804,1.908,5.876,1.908c1.592,0,3.191-0.38,4.655-1.15l43.953-23.123l43.965,23.099
	c3.369,1.77,7.451,1.475,10.531-0.764c3.079-2.238,4.62-6.03,3.976-9.781l-8.409-48.947l35.555-34.676
	c2.725-2.658,3.705-6.632,2.528-10.252C510.327,402.787,507.197,400.15,503.43,399.604z M455.695,440.687
	c-2.356,2.298-3.431,5.608-2.874,8.852l5.868,34.159l-30.683-16.12c-2.914-1.531-6.394-1.53-9.307,0.002l-30.674,16.137l5.85-34.162
	c0.556-3.244-0.521-6.554-2.878-8.851l-24.826-24.187l34.298-4.993c3.257-0.474,6.072-2.521,7.528-5.472l15.331-31.085
	l15.348,31.077c1.458,2.951,4.274,4.996,7.531,5.468l34.301,4.975L455.695,440.687z"/>
<g>
</g>
<g>
</g>
<g>
</g>
<g>
</g>
<g>
</g>
<g>
</g>
<g>
</g>
<g>
</g>
<g>
</g>
<g>
</g>
<g>
</g>
<g>
</g>
<g>
</g>
<g>
</g>
<g>
</g>
</svg>
