<?xml version="1.0" encoding="iso-8859-1"?>
<!-- Generator: Adobe Illustrator 19.0.0, SVG Export Plug-In . SVG Version: 6.00 Build 0)  -->
<svg version="1.1" id="Layer_1" xmlns="http://www.w3.org/2000/svg" xmlns:xlink="http://www.w3.org/1999/xlink" x="0px" y="0px"
	 viewBox="0 0 512 512" style="enable-background:new 0 0 512 512;" xml:space="preserve">
<g>
	<path style="fill:#E6E6E6;" d="M213.678,130.453c0,12.405-9.952,22.464-22.228,22.464H52.16c-12.275,0-22.226-10.059-22.226-22.464
		v-5.992c0-12.406,9.952-22.466,22.226-22.466h139.29c12.276,0,22.228,10.06,22.228,22.466V130.453z"/>
	<path style="fill:#E6E6E6;" d="M482.067,130.453c0,12.405-9.953,22.464-22.227,22.464H320.549
		c-12.275,0-22.225-10.059-22.225-22.464v-5.992c0-12.406,9.95-22.466,22.225-22.466H459.84c12.274,0,22.227,10.06,22.227,22.466
		V130.453z"/>
</g>
<path style="fill:#78B591;" d="M24.178,113.337c-7.648,0-13.848-6.259-13.848-13.977V61.626c0-19.263,15.529-34.937,34.62-34.937
	h153.712c19.09,0,34.62,15.673,34.62,34.937v37.735c0,7.718-6.199,13.977-13.847,13.977H24.178V113.337z"/>
<path style="opacity:0.1;enable-background:new    ;" d="M55.511,99.36V61.626c0-19.263,15.529-34.937,34.62-34.937H44.949
	c-19.09,0-34.62,15.673-34.62,34.937v37.735c0,7.718,6.2,13.977,13.848,13.977H69.36C61.712,113.337,55.511,107.079,55.511,99.36z"
	/>
<path style="fill:#D4EBE9;" d="M243.611,462.228c0,12.748-10.224,23.083-22.838,23.083H22.838C10.224,485.311,0,474.975,0,462.228
	V169.832c0-12.75,10.224-23.084,22.838-23.084h197.934c12.614,0,22.838,10.335,22.838,23.084L243.611,462.228L243.611,462.228z"/>
<path style="opacity:0.1;enable-background:new    ;" d="M44.732,462.228V169.832c0-12.75,10.224-23.084,22.838-23.084H22.838
	C10.224,146.748,0,157.083,0,169.832v292.396c0,12.748,10.224,23.083,22.838,23.083h44.733
	C54.957,485.311,44.732,474.975,44.732,462.228z"/>
<rect x="30.448" y="289.865" style="fill:#666666;" width="182.711" height="164.665"/>
<g>
	<path style="fill:#5D9172;" d="M78.984,67.305H68.446c-4.465,0-8.084-3.62-8.084-8.084c0-4.464,3.62-8.084,8.084-8.084h10.538
		c4.465,0,8.084,3.62,8.084,8.084C87.068,63.685,83.449,67.305,78.984,67.305z"/>
	<path style="fill:#5D9172;" d="M127.073,67.305h-10.537c-4.465,0-8.084-3.62-8.084-8.084c0-4.464,3.62-8.084,8.084-8.084h10.537
		c4.465,0,8.084,3.62,8.084,8.084C135.159,63.685,131.538,67.305,127.073,67.305z"/>
	<path style="fill:#5D9172;" d="M175.165,67.305h-10.538c-4.465,0-8.084-3.62-8.084-8.084c0-4.464,3.62-8.084,8.084-8.084h10.538
		c4.465,0,8.084,3.62,8.084,8.084C183.248,63.685,179.629,67.305,175.165,67.305z"/>
</g>
<path style="fill:#FFEA92;" d="M292.567,113.337c-7.649,0-13.849-6.259-13.849-13.977V61.626c0-19.263,15.529-34.937,34.621-34.937
	h153.712c19.09,0,34.618,15.673,34.618,34.937v37.735c0,7.718-6.198,13.977-13.846,13.977H292.567V113.337z"/>
<path style="opacity:0.1;enable-background:new    ;" d="M323.907,99.36V61.626c0-19.263,15.53-34.937,34.622-34.937h-45.19
	c-19.091,0-34.621,15.673-34.621,34.937v37.735c0,7.718,6.2,13.977,13.849,13.977h45.19
	C330.107,113.337,323.907,107.079,323.907,99.36z"/>
<path style="fill:#D4EBE9;" d="M512,462.228c0,12.748-10.224,23.083-22.837,23.083H291.228c-12.614,0-22.838-10.336-22.838-23.083
	V169.832c0-12.75,10.223-23.084,22.838-23.084h197.935c12.613,0,22.837,10.335,22.837,23.084V462.228z"/>
<path style="opacity:0.1;enable-background:new    ;" d="M313.129,462.228V169.832c0-12.75,10.224-23.084,22.838-23.084h-44.738
	c-12.614,0-22.838,10.335-22.838,23.084v292.396c0,12.748,10.223,23.083,22.838,23.083h44.738
	C323.353,485.311,313.129,474.975,313.129,462.228z"/>
<path style="fill:#E0C924;" d="M400.293,67.305h-20.197c-4.465,0-8.084-3.62-8.084-8.084c0-4.464,3.62-8.084,8.084-8.084h20.197
	c4.465,0,8.083,3.62,8.083,8.084C408.376,63.685,404.758,67.305,400.293,67.305z"/>
<path style="fill:#FFFFFF;" d="M481.549,302.94c0-16.333-13.1-29.575-29.259-29.575c-13.966,0-25.627,9.898-28.541,23.126
	c-2.623-13.308-14.238-23.342-28.176-23.342c-12.042,0-22.342,7.498-26.615,18.122c-0.375-19.246-15.919-34.736-35.051-34.736
	c-18.667,0-33.922,14.745-35.001,33.339l-0.068-0.006v164.665h182.709C481.549,454.532,481.549,303.544,481.549,302.94z"/>
<g>
	<ellipse style="fill:#CCCCCC;" cx="340.658" cy="321.045" rx="14.733" ry="14.887"/>
	<ellipse style="fill:#CCCCCC;" cx="375.724" cy="372.088" rx="14.733" ry="14.887"/>
	<ellipse style="fill:#CCCCCC;" cx="332.236" cy="418.868" rx="14.733" ry="14.887"/>
	<ellipse style="fill:#CCCCCC;" cx="442.358" cy="418.868" rx="14.733" ry="14.887"/>
	<ellipse style="fill:#CCCCCC;" cx="424.824" cy="336.645" rx="14.733" ry="14.887"/>
</g>
<g>
	<path style="fill:#4D4D4D;" d="M45.954,312.252H34.001c-1.275,0-2.477,0.303-3.551,0.83v14.509c1.072,0.527,2.275,0.83,3.551,0.83
		h11.954c4.465,0,8.084-3.62,8.084-8.084C54.038,315.872,50.418,312.252,45.954,312.252z"/>
	<path style="fill:#4D4D4D;" d="M88.553,328.421h11.954c4.465,0,8.084-3.62,8.084-8.084c0-4.465-3.62-8.084-8.084-8.084H88.553
		c-4.465,0-8.084,3.62-8.084,8.084C80.469,324.801,84.088,328.421,88.553,328.421z"/>
	<path style="fill:#4D4D4D;" d="M143.104,328.421h11.954c4.465,0,8.083-3.62,8.083-8.084c0-4.465-3.62-8.084-8.083-8.084h-11.954
		c-4.465,0-8.084,3.62-8.084,8.084C135.02,324.801,138.639,328.421,143.104,328.421z"/>
	<path style="fill:#4D4D4D;" d="M60.766,363.866H72.72c4.465,0,8.084-3.62,8.084-8.084c0-4.465-3.62-8.084-8.084-8.084H60.766
		c-4.465,0-8.084,3.62-8.084,8.084C52.682,360.246,56.301,363.866,60.766,363.866z"/>
	<path style="fill:#4D4D4D;" d="M115.318,363.866h11.953c4.465,0,8.084-3.62,8.084-8.084c0-4.465-3.62-8.084-8.084-8.084h-11.953
		c-4.465,0-8.084,3.62-8.084,8.084C107.234,360.246,110.853,363.866,115.318,363.866z"/>
	<path style="fill:#4D4D4D;" d="M169.871,363.866h11.953c4.465,0,8.084-3.62,8.084-8.084c0-4.465-3.62-8.084-8.084-8.084h-11.953
		c-4.465,0-8.084,3.62-8.084,8.084C161.787,360.246,165.406,363.866,169.871,363.866z"/>
	<path style="fill:#4D4D4D;" d="M45.954,381.724H34.001c-1.275,0-2.477,0.304-3.551,0.83v14.509
		c1.072,0.526,2.275,0.829,3.551,0.829h11.954c4.465,0,8.084-3.62,8.084-8.083C54.038,385.345,50.418,381.724,45.954,381.724z"/>
	<path style="fill:#4D4D4D;" d="M213.16,313.081c-1.073-0.526-2.274-0.829-3.55-0.829h-11.953c-4.465,0-8.084,3.62-8.084,8.084
		c0,4.465,3.62,8.084,8.084,8.084h11.953c1.275,0,2.476-0.303,3.55-0.829V313.081z"/>
	<path style="fill:#4D4D4D;" d="M100.506,381.724H88.552c-4.465,0-8.084,3.62-8.084,8.084c0,4.464,3.62,8.083,8.084,8.083h11.954
		c4.465,0,8.084-3.62,8.084-8.083C108.591,385.345,104.97,381.724,100.506,381.724z"/>
	<path style="fill:#4D4D4D;" d="M155.058,381.724h-11.954c-4.465,0-8.084,3.62-8.084,8.084c0,4.464,3.62,8.083,8.084,8.083h11.954
		c4.465,0,8.083-3.62,8.083-8.083C163.142,385.345,159.522,381.724,155.058,381.724z"/>
	<path style="fill:#4D4D4D;" d="M213.16,382.554c-1.073-0.525-2.274-0.829-3.55-0.829h-11.953c-4.465,0-8.084,3.62-8.084,8.084
		c0,4.464,3.62,8.083,8.084,8.083h11.953c1.275,0,2.476-0.303,3.55-0.829V382.554z"/>
	<path style="fill:#4D4D4D;" d="M72.72,417.169H60.766c-4.465,0-8.084,3.62-8.084,8.084c0,4.465,3.62,8.084,8.084,8.084H72.72
		c4.465,0,8.084-3.62,8.084-8.084C80.804,420.788,77.185,417.169,72.72,417.169z"/>
	<path style="fill:#4D4D4D;" d="M127.272,417.169h-11.953c-4.465,0-8.084,3.62-8.084,8.084c0,4.465,3.62,8.084,8.084,8.084h11.953
		c4.465,0,8.084-3.62,8.084-8.084C135.356,420.788,131.737,417.169,127.272,417.169z"/>
	<path style="fill:#4D4D4D;" d="M181.825,417.169h-11.953c-4.465,0-8.084,3.62-8.084,8.084c0,4.465,3.62,8.084,8.084,8.084h11.953
		c4.465,0,8.084-3.62,8.084-8.084C189.909,420.788,186.29,417.169,181.825,417.169z"/>
</g>
<g>
	<path style="fill:#FFFFFF;" d="M173.708,185.595c14.288,5.917,19.085,10.715,25.003,25.003
		c5.917-14.287,10.715-19.086,25.004-25.003c-14.288-5.919-19.086-10.716-25.004-25.004
		C192.793,174.877,187.996,179.675,173.708,185.595z"/>
	<circle style="fill:#FFFFFF;" cx="214.664" cy="225.928" r="11.031"/>
	<path style="fill:#FFFFFF;" d="M444.337,185.595c14.288,5.917,19.086,10.715,25.003,25.003
		c5.917-14.287,10.715-19.086,25.004-25.003c-14.289-5.919-19.087-10.716-25.004-25.004
		C463.423,174.877,458.625,179.675,444.337,185.595z"/>
	<circle style="fill:#FFFFFF;" cx="485.292" cy="225.928" r="11.031"/>
</g>
<g>
</g>
<g>
</g>
<g>
</g>
<g>
</g>
<g>
</g>
<g>
</g>
<g>
</g>
<g>
</g>
<g>
</g>
<g>
</g>
<g>
</g>
<g>
</g>
<g>
</g>
<g>
</g>
<g>
</g>
</svg>
