<?xml version="1.0" encoding="iso-8859-1"?>
<!-- Generator: Adobe Illustrator 18.0.0, SVG Export Plug-In . SVG Version: 6.00 Build 0)  -->
<!DOCTYPE svg PUBLIC "-//W3C//DTD SVG 1.1//EN" "http://www.w3.org/Graphics/SVG/1.1/DTD/svg11.dtd">
<svg version="1.1" id="Capa_1" xmlns="http://www.w3.org/2000/svg" xmlns:xlink="http://www.w3.org/1999/xlink" x="0px" y="0px"
	 viewBox="0 0 56 56" style="enable-background:new 0 0 56 56;" xml:space="preserve">
<g>
	<path style="fill:#FBD490;" d="M6,49.5c-0.552,0-1-0.447-1-1c0-6.065,4.935-11,11-11h2c0.552,0,1,0.447,1,1s-0.448,1-1,1h-2
		c-4.962,0-9,4.037-9,9C7,49.053,6.552,49.5,6,49.5z"/>
	<path style="fill:#FBD490;" d="M12,49.5c-0.552,0-1-0.447-1-1c0-2.757,2.243-5,5-5h5c0.552,0,1,0.447,1,1s-0.448,1-1,1h-5
		c-1.654,0-3,1.346-3,3C13,49.053,12.552,49.5,12,49.5z"/>
	<path style="fill:#FBD490;" d="M9,49.5c-0.552,0-1-0.447-1-1c0-4.411,3.589-8,8-8h4c0.552,0,1,0.447,1,1s-0.448,1-1,1h-4
		c-3.309,0-6,2.691-6,6C10,49.053,9.552,49.5,9,49.5z"/>
	<path style="fill:#FBD490;" d="M21,48.5h-5c-0.552,0-1-0.447-1-1s0.448-1,1-1h5c0.552,0,1,0.447,1,1S21.552,48.5,21,48.5z"/>
	<path style="fill:#FBD490;" d="M48,49.5c-0.552,0-1-0.447-1-1c0-4.963-4.038-9-9-9h-7c-0.552,0-1-0.447-1-1s0.448-1,1-1h7
		c6.065,0,11,4.935,11,11C49,49.053,48.552,49.5,48,49.5z"/>
	<path style="fill:#FBD490;" d="M42,49.5c-0.552,0-1-0.447-1-1c0-1.654-1.346-3-3-3h-5c-0.552,0-1-0.447-1-1s0.448-1,1-1h5
		c2.757,0,5,2.243,5,5C43,49.053,42.552,49.5,42,49.5z"/>
	<path style="fill:#FBD490;" d="M45,49.5c-0.552,0-1-0.447-1-1c0-3.309-2.691-6-6-6h-6c-0.552,0-1-0.447-1-1s0.448-1,1-1h6
		c4.411,0,8,3.589,8,8C46,49.053,45.552,49.5,45,49.5z"/>
	<path style="fill:#FBD490;" d="M38,48.5h-5c-0.552,0-1-0.447-1-1s0.448-1,1-1h5c0.552,0,1,0.447,1,1S38.552,48.5,38,48.5z"/>
	<path style="fill:#FBD490;" d="M34,36.5c-0.552,0-1-0.447-1-1c0-2.757-2.243-5-5-5c-0.552,0-1-0.447-1-1s0.448-1,1-1
		c3.86,0,7,3.141,7,7C35,36.053,34.552,36.5,34,36.5z"/>
	<path style="fill:#FBD490;" d="M37,36.5c-0.552,0-1-0.447-1-1c0-4.411-3.589-8-8-8c-0.552,0-1-0.447-1-1s0.448-1,1-1
		c5.514,0,10,4.486,10,10C38,36.053,37.552,36.5,37,36.5z"/>
	<path style="fill:#FBD490;" d="M31,36.5c-0.552,0-1-0.447-1-1c0-1.103-0.897-2-2-2c-0.552,0-1-0.447-1-1s0.448-1,1-1
		c2.206,0,4,1.794,4,4C32,36.053,31.552,36.5,31,36.5z"/>
	<path style="fill:#FBD490;" d="M40,36.5c-0.552,0-1-0.447-1-1c0-6.065-4.935-11-11-11h-2c-1.654,0-3,1.346-3,3c0,0.553-0.448,1-1,1
		s-1-0.447-1-1c0-2.757,2.243-5,5-5h2c7.168,0,13,5.832,13,13C41,36.053,40.552,36.5,40,36.5z"/>
	<path style="fill:#FBD490;" d="M25,30.5c-0.552,0-1-0.447-1-1c0-2.206,1.794-4,4-4c0.552,0,1,0.447,1,1s-0.448,1-1,1
		c-1.103,0-2,0.897-2,2C26,30.053,25.552,30.5,25,30.5z"/>
	<path style="fill:#FBD490;" d="M24,49.5c-0.552,0-1-0.447-1-1c0-8.748-2.617-13-8-13c-0.551,0-1,0.448-1,1c0,0.553-0.448,1-1,1
		s-1-0.447-1-1c0-1.654,1.346-3,3-3c4.562,0,10,2.603,10,15C25,49.053,24.552,49.5,24,49.5z"/>
	<path style="fill:#FBD490;" d="M31,49.5h-5v-1c0-4.811-1.072-16-11-16c-2.757,0-5,2.243-5,5v1c0,0.553-0.448,1-1,1s-1-0.447-1-1v-1
		c0-3.859,3.14-7,7-7c7.897,0,12.707,6.331,12.987,17h0.999c-0.26-8.884-4.037-18-13.985-18h-1c-4.411,0-8,3.589-8,8v5
		c0,0.553-0.448,1-1,1s-1-0.447-1-1v-5c0-5.514,4.486-10,10-10h1c7.735,0,16,5.517,16,21V49.5z"/>
	<path style="fill:#231F20;" d="M19,8.504c-4.373,0-5.006-0.004-5.006-0.004C13.441,8.496,12.997,8.046,13,7.494
		C13.003,6.943,13.451,6.5,14,6.5c0.002,0,0.004,0,0.006,0c0.007,0,0.655,0.004,4.994,0.004c0.552,0,1,0.447,1,1
		S19.552,8.504,19,8.504z"/>
	<path style="fill:#E6E6E6;" d="M7,8.5H3c-0.552,0-1-0.447-1-1s0.448-1,1-1h4c0.552,0,1,0.447,1,1S7.552,8.5,7,8.5z"/>
	<path style="fill:#E6E6E6;" d="M7,11.5H3c-0.552,0-1-0.447-1-1s0.448-1,1-1h4c0.552,0,1,0.447,1,1S7.552,11.5,7,11.5z"/>
	<path style="fill:#E6E6E6;" d="M7,5.5H3c-0.552,0-1-0.447-1-1s0.448-1,1-1h4c0.552,0,1,0.447,1,1S7.552,5.5,7,5.5z"/>
	<path style="fill:#E6E6E6;" d="M14,3.5h6c2.2,0,4,1.8,4,4v0c0,2.2-1.8,4-4,4h-6V3.5z"/>
	<path style="fill:#D2D5D7;" d="M23.441,5.5C23.787,6.091,24,6.769,24,7.5s-0.213,1.409-0.559,2H52c1.105,0,2-0.895,2-2v0
		c0-1.105-0.895-2-2-2H23.441z"/>
	<path style="fill:#E6E6E6;" d="M48.409,54.5H7.591c-2.243,0-4.338-1.121-5.582-2.988L0,48.5h56l-2.008,3.012
		C52.747,53.379,50.653,54.5,48.409,54.5z"/>
	<g>
		<line style="fill:#FFFFFF;" x1="14" y1="2.5" x2="14" y2="12.5"/>
		<path style="fill:#FBD490;" d="M14,13.5c-0.552,0-1-0.447-1-1v-10c0-0.553,0.448-1,1-1s1,0.447,1,1v10
			C15,13.053,14.552,13.5,14,13.5z"/>
	</g>
	<g>
		<line style="fill:#FFFFFF;" x1="11" y1="2.5" x2="11" y2="12.5"/>
		<path style="fill:#FBD490;" d="M11,13.5c-0.552,0-1-0.447-1-1v-10c0-0.553,0.448-1,1-1s1,0.447,1,1v10
			C12,13.053,11.552,13.5,11,13.5z"/>
	</g>
	<g>
		<line style="fill:#FFFFFF;" x1="11" y1="15.5" x2="11" y2="25.5"/>
		<path style="fill:#FBD490;" d="M11,26.5c-0.552,0-1-0.447-1-1v-10c0-0.553,0.448-1,1-1s1,0.447,1,1v10
			C12,26.053,11.552,26.5,11,26.5z"/>
	</g>
	<g>
		<line style="fill:#FFFFFF;" x1="8" y1="16.5" x2="8" y2="26.5"/>
		<path style="fill:#FBD490;" d="M8,27.5c-0.552,0-1-0.447-1-1v-10c0-0.553,0.448-1,1-1s1,0.447,1,1v10C9,27.053,8.552,27.5,8,27.5z
			"/>
	</g>
	<g>
		<line style="fill:#FFFFFF;" x1="8" y1="2.5" x2="8" y2="13.789"/>
		<path style="fill:#FBD490;" d="M8,14.789c-0.552,0-1-0.447-1-1V2.5c0-0.553,0.448-1,1-1s1,0.447,1,1v11.289
			C9,14.342,8.552,14.789,8,14.789z"/>
	</g>
</g>
<g>
</g>
<g>
</g>
<g>
</g>
<g>
</g>
<g>
</g>
<g>
</g>
<g>
</g>
<g>
</g>
<g>
</g>
<g>
</g>
<g>
</g>
<g>
</g>
<g>
</g>
<g>
</g>
<g>
</g>
</svg>
