<?xml version="1.0" encoding="iso-8859-1"?>
<!-- Generator: Adobe Illustrator 19.0.0, SVG Export Plug-In . SVG Version: 6.00 Build 0)  -->
<svg version="1.1" id="Capa_1" xmlns="http://www.w3.org/2000/svg" xmlns:xlink="http://www.w3.org/1999/xlink" x="0px" y="0px"
	 viewBox="0 0 512 512" style="enable-background:new 0 0 512 512;" xml:space="preserve">
<g>
	<path style="fill:#8CCEEA;" d="M223.583,48.005v-5.588c0-17.904,14.514-32.418,32.418-32.418c17.904,0,32.418,14.514,32.418,32.418
		v5.588H223.583z"/>
	<path style="fill:#8CCEEA;" d="M407.343,278h94.656l0,0c0,29.823-24.177,54-54,54H64.003c-29.823,0-54-24.177-54-54l0,0h54H407.343
		z"/>
</g>
<path style="fill:#FCCDAC;" d="M459.614,340.829L459.614,340.829c-7.617-6.56-18.771-6.94-26.817-0.914l-52.604,39.395
	c-20.37,15.255-45.502,22.766-70.901,21.191l-8.587-0.532l-0.308-0.022c0.444-0.724,0.863-1.468,1.236-2.249
	c6.176-12.933-0.006-28.383-13.398-33.487l-71.464-27.235c-17.381-6.624-36.621-6.446-53.877,0.498l-75.889,30.541l33.386,77.28
	l176.008,39.947c20.591,1.522,40.935-5.26,56.493-18.834l29.005-25.307l48.671-42.465l29.155-25.438
	C469.543,364.627,469.494,349.338,459.614,340.829z"/>
<rect x="38.972" y="347.007" transform="matrix(0.9 -0.4359 0.4359 0.9 -176.3184 73.4748)" style="fill:#657FC9;" width="66" height="147.999"/>
<path style="fill:#D0E6EF;" d="M32.003,278c0-123.711,100.287-223.998,223.998-223.998l0,0
	c123.711,0,223.998,100.287,223.998,223.998H32.003z"/>
<path style="fill:#F25353;" d="M274.764,149.52c-7.39,0-14.055,3.223-18.763,8.388c-4.708-5.165-11.372-8.388-18.763-8.388
	c-14.265,0-25.828,12.005-25.828,26.815c0,24.964,44.591,54.666,44.591,54.666s44.591-29.702,44.591-54.666
	C300.592,161.526,289.028,149.52,274.764,149.52z"/>
<path d="M405.04,411.018c-2.63,0-5.21,1.061-7.07,2.92c-1.86,1.87-2.93,4.45-2.93,7.08c0,2.63,1.069,5.21,2.93,7.07
	c1.861,1.86,4.44,2.93,7.07,2.93s5.21-1.069,7.069-2.93c1.86-1.86,2.931-4.44,2.931-7.07c0-2.63-1.07-5.21-2.931-7.08
	C410.25,412.078,407.67,411.018,405.04,411.018z"/>
<path d="M75.013,463.037c2.63,0,5.2-1.07,7.07-2.931c1.859-1.869,2.93-4.439,2.93-7.069c0-2.641-1.07-5.21-2.93-7.08
	c-1.86-1.86-4.44-2.92-7.07-2.92s-5.21,1.06-7.07,2.92c-1.859,1.87-2.93,4.439-2.93,7.08c0,2.63,1.07,5.2,2.93,7.069
	C69.803,461.967,72.383,463.037,75.013,463.037z"/>
<path d="M426.289,177.969c-24.433-42.83-65.595-74.912-112.933-88.021c-5.324-1.472-10.831,1.646-12.307,6.969
	c-1.474,5.322,1.646,10.832,6.969,12.307c42.287,11.71,79.062,40.38,100.899,78.656c1.845,3.234,5.221,5.047,8.694,5.047
	c1.68,0,3.383-0.424,4.946-1.316C427.356,188.873,429.026,182.766,426.289,177.969z"/>
<path d="M263.155,103.155l0.954,0.003c0.02,0,0.039,0,0.059,0c5.496,0,9.967-4.439,9.999-9.942
	c0.032-5.522-4.419-10.025-9.942-10.058l-1.069-0.003c-5.522,0-10,4.478-10,10S257.633,103.155,263.155,103.155z"/>
<path d="M511.999,278c0-5.522-4.478-10-10-10h-12.223c-2.454-58.749-26.482-113.63-68.313-155.461
	c-34.026-34.027-76.69-56.268-123.044-64.708v-5.413C298.419,19.028,279.391,0,256.001,0s-42.418,19.028-42.418,42.418v5.413
	c-46.354,8.441-89.018,30.682-123.044,64.708C48.708,154.37,24.68,209.251,22.226,268H10.003c-5.522,0-10,4.478-10,10
	c0,29.441,19.988,54.287,47.103,61.719L5.644,359.802c-4.971,2.408-7.048,8.389-4.641,13.359c2.409,4.973,8.393,7.046,13.359,4.641
	L64.76,353.39l55.799,115.197l-50.398,24.411c-4.971,2.407-7.048,8.389-4.641,13.359c1.728,3.566,5.294,5.643,9.007,5.643
	c1.463,0,2.948-0.322,4.353-1.002l59.398-28.771c2.387-1.156,4.217-3.213,5.087-5.719c0.87-2.505,0.71-5.254-0.446-7.641
	l-4.722-9.748l143.412,29.157c6.709,1.364,13.496,2.031,20.261,2.031c24.687,0,49.034-8.897,67.861-25.324l18.736-16.348
	c4.162-3.631,4.592-9.948,0.961-14.109c-3.632-4.163-9.948-4.592-14.109-0.961l-18.736,16.348
	c-19.323,16.858-45.862,23.872-70.989,18.764l-158.362-32.196l-29.947-61.826l69.34-27.906c14.965-6.023,31.509-6.177,46.582-0.432
	l71.465,27.235c3.836,1.462,6.788,4.366,8.313,8.177c1.525,3.813,1.391,7.952-0.378,11.656c-3.089,6.467-10.32,9.699-17.199,7.678
	L217.604,384.1c-5.296-1.549-10.856,1.479-12.412,6.779c-1.555,5.3,1.48,10.856,6.779,12.412l57.804,16.964
	c3.27,0.959,6.57,1.42,9.822,1.419c9.755,0,19.045-4.148,25.559-11.412l3.517,0.218c2.414,0.15,4.823,0.225,7.231,0.225
	c25.257-0.001,49.973-8.183,70.281-23.393l52.606-39.395c4.255-3.188,10.268-2.981,14.296,0.488
	c2.548,2.193,3.957,5.253,3.969,8.615c0.011,3.362-1.379,6.432-3.912,8.643l-29.155,25.438c-4.161,3.631-4.592,9.948-0.961,14.109
	c3.631,4.162,9.947,4.591,14.109,0.961l29.155-25.438c6.87-5.995,10.793-14.662,10.763-23.779
	c-0.022-6.962-2.355-13.642-6.53-19.061C494.732,328.761,511.999,305.364,511.999,278z M233.583,42.418
	C233.583,30.057,243.64,20,256.001,20c12.361,0,22.418,10.057,22.418,22.418v2.646c-7.406-0.699-14.884-1.062-22.418-1.062
	c-7.534,0-15.012,0.362-22.418,1.062L233.583,42.418L233.583,42.418z M256.001,64.002c114.646,0,208.515,90.624,213.757,203.997
	H42.244C47.486,154.627,141.355,64.002,256.001,64.002z M81.466,341.999h43.395l-36.316,14.615L81.466,341.999z M374.197,371.306
	c-17.403,13.031-38.701,19.836-60.375,19.37c0.567-5.512-0.177-11.143-2.27-16.374c-3.572-8.928-10.774-16.012-19.76-19.437
	l-33.761-12.866h155.299L374.197,371.306z M448,321.999H64.003c-20.823,0-38.314-14.539-42.854-34h469.703
	C486.314,307.461,468.822,321.999,448,321.999z"/>
<path d="M274.764,139.52c-6.658,0-13.163,1.933-18.763,5.462c-5.6-3.529-12.104-5.462-18.763-5.462
	c-19.756,0-35.828,16.515-35.828,36.814c0,29.468,44.027,59.645,49.047,62.988c1.679,1.118,3.611,1.678,5.544,1.678
	c1.933,0,3.865-0.56,5.544-1.678c5.02-3.344,49.047-33.521,49.047-62.988C310.592,156.035,294.52,139.52,274.764,139.52z
	 M256.015,218.755c-13.947-10.418-34.604-29.471-34.604-42.421c0-9.271,7.101-16.814,15.828-16.814c4.321,0,8.36,1.819,11.372,5.124
	c1.895,2.079,4.578,3.264,7.391,3.264c2.813,0,5.496-1.185,7.391-3.264c3.012-3.305,7.051-5.124,11.372-5.124
	c8.728,0,15.828,7.543,15.828,16.814C290.592,188.367,271.883,206.983,256.015,218.755z"/>
<g>
</g>
<g>
</g>
<g>
</g>
<g>
</g>
<g>
</g>
<g>
</g>
<g>
</g>
<g>
</g>
<g>
</g>
<g>
</g>
<g>
</g>
<g>
</g>
<g>
</g>
<g>
</g>
<g>
</g>
</svg>
